<svg width="30" height="30" viewBox="0 0 30 30" fill="none" xmlns="http://www.w3.org/2000/svg">
<path d="M22.7866 4.25585L23.4428 3.43186C23.4429 3.43189 23.4429 3.43192 23.4429 3.43194C23.5593 3.52461 23.6738 3.62092 23.7675 3.706C23.8113 3.74577 23.8696 3.80014 23.9258 3.85963C23.9507 3.88594 24.0024 3.94164 24.0572 4.01477C24.0832 4.04954 24.1348 4.12088 24.1864 4.21783L24.1875 4.21998L24.3657 4.05949L25.3617 5.27704L25.4924 5.43679L25.4925 5.43691C27.388 7.75456 28.4223 10.2461 28.7143 13.1938C28.7415 13.469 28.7623 13.7483 28.7767 14.0318C28.7923 14.3376 28.8055 14.6222 28.7948 14.8266C28.7948 14.8282 28.7947 14.8305 28.7945 14.8335C28.7922 14.8936 28.7791 15.2262 28.6043 15.5565C28.5423 15.6738 28.4421 15.824 28.2924 15.964C28.4054 16.1419 28.459 16.3048 28.4839 16.3935C28.5405 16.5946 28.5486 16.7706 28.5496 16.8701C28.5501 16.9274 28.5483 16.9841 28.5449 17.0394C28.5358 17.1844 28.5154 17.3192 28.4964 17.4259C28.4406 17.7397 28.3418 18.1103 28.2287 18.4771C28.0012 19.2152 27.6606 20.1149 27.3045 20.8304L27.3045 20.8304C26.4155 22.6162 25.2288 24.1537 23.7759 25.3693L23.7758 25.3693C23.4213 25.6659 23.0348 25.9607 22.6671 26.2212C22.4642 26.3649 22.267 26.4982 22.0842 26.6155C21.833 26.7767 21.5707 26.9325 21.3387 27.0436C21.2353 27.0931 21.0611 27.1716 20.8612 27.22C20.7699 27.2421 20.5656 27.2857 20.3121 27.262C20.2174 27.2531 20.0795 27.23 19.9255 27.1746C19.8631 27.3138 19.7726 27.4648 19.64 27.6101C19.4072 27.8654 19.1485 27.9855 19.0357 28.0344C18.932 28.0793 18.8191 28.1175 18.7593 28.1377L18.7462 28.1421C18.1403 28.3474 17.0937 28.5617 16.2753 28.6679C16.2234 28.6746 16.1725 28.6809 16.1227 28.6867L16.1227 28.6867C14.9574 28.823 13.7774 28.8061 12.6171 28.6454C10.2394 28.316 7.94464 27.3827 6.0291 25.9268M22.7866 4.25585L5.58954 25.5953L5.61666 25.6154C5.64186 25.6342 5.67666 25.6603 5.71908 25.6922C5.8036 25.7558 5.91389 25.8392 6.0291 25.9268M22.7866 4.25585L22.5084 4.60523L22.7867 4.25587C23.0234 4.44866 23.2529 4.65078 23.475 4.86166L13.3482 1.52495C13.3821 1.52141 13.4239 1.5182 13.4726 1.51535C13.4726 1.51535 13.4726 1.51535 13.4726 1.51535C13.7576 1.49866 14.2816 1.49432 14.8823 1.50882C15.5757 1.52557 16.2163 1.56354 16.5176 1.60453L16.5176 1.60453C16.5569 1.60987 16.5961 1.61537 16.6352 1.62104C18.5649 1.90035 20.3583 2.57661 21.8638 3.57589L21.8638 3.5759C22.1821 3.78718 22.49 4.01419 22.7866 4.25585ZM6.0291 25.9268L6.7534 24.9738L6.02914 25.9268C6.02913 25.9268 6.02911 25.9268 6.0291 25.9268ZM19.3365 26.424L19.1457 26.5419C19.1819 26.6005 19.2203 26.6544 19.2602 26.7039L19.3365 26.424ZM19.3365 26.424L19.3369 26.424L19.337 26.424L19.3366 26.4239L19.3365 26.424ZM19.8491 26.4625C19.849 26.4625 19.849 26.4626 19.8489 26.4626L20.0834 26.4803L19.8491 26.4625ZM19.8491 26.4625L20.0834 26.4801L19.8491 26.4625ZM16.5776 1.96126L16.5775 1.96136L16.5776 1.96126ZM16.5776 1.96126L16.5776 1.96117L16.5776 1.96126ZM19.07 26.4039C19.07 26.4039 19.07 26.4039 19.07 26.4039L19.07 26.4039ZM5.6033 25.605C5.60333 25.605 5.60336 25.605 5.60339 25.605L6.29301 24.6102C6.29301 24.6102 6.293 24.6102 6.29299 24.6102L5.6033 25.605ZM20.0259 24.3456C20.0259 24.3455 20.0289 24.3441 20.0346 24.3418C20.0286 24.3445 20.0258 24.3457 20.0259 24.3456ZM3.97448 21.9889C3.96161 22.007 3.96405 22.0014 3.98031 21.9805C3.97809 21.9837 3.97617 21.9865 3.97448 21.9889ZM6.0581 21.8714C6.05819 21.8716 6.05644 21.8697 6.05265 21.8654C6.05614 21.8692 6.05801 21.8713 6.0581 21.8714ZM16.1135 27.513C16.0768 27.5181 16.0345 27.523 15.9871 27.5277C15.6595 27.5599 15.0902 27.5794 14.4555 27.5747C13.7293 27.5692 13.0881 27.5333 12.7964 27.4881L16.1135 27.513Z" stroke="url(#paint0_linear_659_290)" stroke-width="3"/>
<defs>
<linearGradient id="paint0_linear_659_290" x1="0" y1="14.5377" x2="29.0611" y2="14.5377" gradientUnits="userSpaceOnUse">
<stop stop-color="#5001EE"/>
<stop offset="1" stop-color="#DB0FDB"/>
</linearGradient>
</defs>
</svg>
