<svg width="29" height="28" viewBox="0 0 29 28" fill="none" xmlns="http://www.w3.org/2000/svg">
<path d="M20.511 3.87827C18.9199 2.87009 17.0962 2.23064 15.1815 2.04907L20.511 3.87827ZM20.511 3.87827C20.0776 3.94342 19.6659 4.06542 19.3204 4.18748C18.6698 4.41736 17.9754 4.74978 17.3065 5.14769C17.3065 5.14771 17.3065 5.14772 17.3064 5.14773L17.2422 5.18595L17.1924 5.17577L17.1922 5.17573C15.1283 4.75375 12.9732 4.75514 10.9217 5.18086C10.3189 4.8131 9.66202 4.49815 9.04835 4.26864C8.65516 4.12159 8.15801 3.96233 7.6439 3.88376L20.511 3.87827ZM3.15926 14.7171L5.14873 14.5121L4.33148 8.00313C4.33128 8.4152 4.33705 8.76579 4.35957 9.05696C4.36255 9.09549 4.36596 9.13534 4.36999 9.17637C3.28881 10.7781 2.94754 12.6626 3.15926 14.7171ZM3.15926 14.7171C3.27149 15.8063 3.50948 16.8281 3.9122 17.7535C3.77778 17.7714 3.64851 17.7967 3.52684 17.8277C3.33649 17.8763 3.08784 17.9582 2.83433 18.1023C2.79506 18.1247 2.74101 18.1566 2.67765 18.1993M3.15926 14.7171L2.67765 18.1993M2.67765 18.1993C1.4126 14.5331 1.88952 10.3123 4.35898 6.94007C4.33426 7.25152 4.33166 7.59892 4.33148 8.00299L2.67765 18.1993ZM19.5392 22.8698C19.531 22.5734 19.5191 22.2037 19.483 21.8968C19.9664 21.744 20.4138 21.5582 20.8914 21.3127L20.8914 21.3127C23.8071 19.8142 25.0597 16.9832 25.0597 13.5283C25.0597 11.9127 24.668 10.4563 23.8047 9.18158C23.9189 8.48765 23.9247 7.7217 23.8318 6.99013C24.038 7.27357 24.2324 7.567 24.4142 7.86988L24.4143 7.86989C27.5347 13.0664 26.3337 19.884 21.6406 23.681C21.0164 24.186 20.275 24.6651 19.5598 25.0427C19.5598 24.9561 19.5598 24.866 19.5598 24.7722C19.5598 24.0072 19.5528 23.361 19.5392 22.8698ZM4.74799 5.27274V5.27274ZM18.0164 25.7015C18.0165 25.7015 18.0173 25.7013 18.0188 25.701L18.0164 25.7015ZM19.5922 26.8316C19.5976 26.8598 19.5961 26.8634 19.5925 26.8337C19.5924 26.833 19.5923 26.8323 19.5922 26.8316Z" stroke="url(#paint0_linear_659_272)" stroke-width="4"/>
<defs>
<linearGradient id="paint0_linear_659_272" x1="0" y1="13.8448" x2="28.1454" y2="13.8448" gradientUnits="userSpaceOnUse">
<stop stop-color="#5001EE"/>
<stop offset="1" stop-color="#DB0FDB"/>
</linearGradient>
</defs>
</svg>
