<svg width="19" height="19" viewBox="0 0 19 19" fill="none" xmlns="http://www.w3.org/2000/svg">
<mask id="path-1-inside-1_659_260" fill="white">
<path fill-rule="evenodd" clip-rule="evenodd" d="M8.36068 0.536511C6.66041 0.713779 5.10871 1.3202 3.74155 2.34174C3.27093 2.69336 2.40485 3.54083 2.06463 3.98263C1.70068 4.45524 1.40367 4.91886 1.14304 5.4212C-0.375798 8.34884 -0.190678 11.8674 1.62521 14.5866C2.01073 15.1639 2.28557 15.4988 2.78056 15.9947C4.19707 17.4135 5.94996 18.2968 7.96983 18.6097C8.47914 18.6886 9.80586 18.6985 10.3149 18.6273C11.7936 18.4202 13.1776 17.8949 14.4011 17.0764C16.4436 15.71 17.7489 13.6733 18.17 11.1956C18.265 10.6368 18.3031 9.33535 18.242 8.7371C17.9553 5.93197 16.4961 3.43 14.2945 1.96869C13.2105 1.24917 11.9285 0.77532 10.5636 0.589702C10.0765 0.523435 8.78511 0.492238 8.36068 0.536511ZM8.5561 1.65935C8.13463 1.7033 7.61597 1.79728 7.2059 1.90399C6.79607 2.01069 6.27486 2.18383 6.23048 2.22807C6.22163 2.23688 6.45504 2.48738 6.74917 2.78471C7.0433 3.08204 7.41909 3.47719 7.5842 3.66284C8.19119 4.3452 9.11562 5.56013 9.50871 6.1921C9.59061 6.32371 9.67688 6.43208 9.70051 6.43286C9.76184 6.43496 10.7611 5.99849 11.2088 5.77407C11.7614 5.49706 12.475 5.08067 12.962 4.751C13.5605 4.34594 14.4011 3.66988 14.4011 3.59363C14.4011 3.58009 14.3012 3.48941 14.179 3.39213C13.0761 2.5136 11.8747 1.97807 10.4748 1.74086C10.0623 1.67097 8.91299 1.62215 8.5561 1.65935ZM4.75197 3.02661C3.86019 3.6347 3.08528 4.42699 2.51361 5.31507C2.25291 5.72006 1.90197 6.42189 1.7372 6.86774C1.58843 7.27031 1.41465 7.92118 1.44723 7.95377C1.47786 7.98436 3.02399 7.90256 3.6863 7.83527C4.94459 7.70746 6.35491 7.45995 7.43028 7.17829C8.04104 7.01829 8.53834 6.86649 8.53834 6.84002C8.53834 6.76377 7.56669 5.4362 7.08417 4.85316C6.4501 4.08706 5.21068 2.81008 5.10114 2.81008C5.08376 2.81008 4.92664 2.90751 4.75197 3.02661ZM14.9746 4.64025C14.1217 5.40848 13.0503 6.12935 11.8606 6.73556C11.3582 6.99149 11.0743 7.1231 10.4495 7.38966L10.282 7.46112L10.5949 8.07585C10.7671 8.41397 10.9544 8.79807 11.0111 8.92947C11.0726 9.07163 11.136 9.16849 11.1677 9.16867C11.197 9.16885 11.3729 9.14401 11.5585 9.11345C12.0233 9.03699 13.3893 9.00757 13.9656 9.06161C14.8216 9.14188 15.6761 9.32416 16.5798 9.61918C16.857 9.70967 17.1062 9.79225 17.1336 9.80266C17.1757 9.81869 17.1796 9.74425 17.1583 9.32718C17.0628 7.44939 16.4825 5.92906 15.3176 4.50466L15.2359 4.40489L14.9746 4.64025ZM8.89366 7.9522C6.84017 8.60343 4.38198 9.00689 1.97726 9.08744L1.29359 9.11033L1.26922 9.30532C1.21858 9.71056 1.31995 10.7593 1.47423 11.4265C1.64397 12.1605 2.03492 13.1048 2.43679 13.7513C2.61029 14.0305 3.13591 14.7408 3.23448 14.8293C3.30263 14.8905 3.30831 14.8862 3.45286 14.6627C3.9094 13.9567 4.54105 13.1981 5.32033 12.4198C6.65125 11.0905 8.13832 10.1163 9.63094 9.59576C9.81169 9.53273 9.95961 9.46376 9.95961 9.44251C9.95961 9.39309 9.34981 8.16347 9.24173 7.99488L9.16014 7.86767L8.89366 7.9522ZM12.2692 10.1633C12.0835 10.1788 11.8495 10.2029 11.7492 10.2166L11.5667 10.2418L11.7427 10.7453C12.3313 12.4289 12.7406 14.4557 12.8253 16.1055C12.838 16.3534 12.8607 16.5762 12.8758 16.6005C12.9298 16.6879 13.7434 16.1658 14.3695 15.6421C15.1701 14.9722 15.8335 14.1174 16.3358 13.1083C16.7251 12.3261 17.1161 11.0579 16.9918 10.9801C16.795 10.8568 15.5281 10.4714 14.8985 10.3433C14.1023 10.1812 12.9766 10.1042 12.2692 10.1633ZM10.0484 10.6233C8.03027 11.3252 6.21048 12.7514 4.72134 14.7981C4.34406 15.3166 4.10899 15.7063 4.1545 15.7379C4.17316 15.7508 4.30771 15.8521 4.45354 15.9629C6.04102 17.1695 8.10347 17.7335 10.0819 17.502C10.5653 17.4455 11.2092 17.3133 11.5286 17.2051C11.7162 17.1415 11.7186 17.1389 11.7302 16.9841C11.7474 16.756 11.6723 15.7434 11.5896 15.0863C11.4381 13.8849 11.175 12.7186 10.7892 11.5397C10.5186 10.7126 10.4407 10.5198 10.3784 10.5224C10.3532 10.5235 10.2048 10.5689 10.0484 10.6233Z"/>
</mask>
<path fill-rule="evenodd" clip-rule="evenodd" d="M8.36068 0.536511C6.66041 0.713779 5.10871 1.3202 3.74155 2.34174C3.27093 2.69336 2.40485 3.54083 2.06463 3.98263C1.70068 4.45524 1.40367 4.91886 1.14304 5.4212C-0.375798 8.34884 -0.190678 11.8674 1.62521 14.5866C2.01073 15.1639 2.28557 15.4988 2.78056 15.9947C4.19707 17.4135 5.94996 18.2968 7.96983 18.6097C8.47914 18.6886 9.80586 18.6985 10.3149 18.6273C11.7936 18.4202 13.1776 17.8949 14.4011 17.0764C16.4436 15.71 17.7489 13.6733 18.17 11.1956C18.265 10.6368 18.3031 9.33535 18.242 8.7371C17.9553 5.93197 16.4961 3.43 14.2945 1.96869C13.2105 1.24917 11.9285 0.77532 10.5636 0.589702C10.0765 0.523435 8.78511 0.492238 8.36068 0.536511ZM8.5561 1.65935C8.13463 1.7033 7.61597 1.79728 7.2059 1.90399C6.79607 2.01069 6.27486 2.18383 6.23048 2.22807C6.22163 2.23688 6.45504 2.48738 6.74917 2.78471C7.0433 3.08204 7.41909 3.47719 7.5842 3.66284C8.19119 4.3452 9.11562 5.56013 9.50871 6.1921C9.59061 6.32371 9.67688 6.43208 9.70051 6.43286C9.76184 6.43496 10.7611 5.99849 11.2088 5.77407C11.7614 5.49706 12.475 5.08067 12.962 4.751C13.5605 4.34594 14.4011 3.66988 14.4011 3.59363C14.4011 3.58009 14.3012 3.48941 14.179 3.39213C13.0761 2.5136 11.8747 1.97807 10.4748 1.74086C10.0623 1.67097 8.91299 1.62215 8.5561 1.65935ZM4.75197 3.02661C3.86019 3.6347 3.08528 4.42699 2.51361 5.31507C2.25291 5.72006 1.90197 6.42189 1.7372 6.86774C1.58843 7.27031 1.41465 7.92118 1.44723 7.95377C1.47786 7.98436 3.02399 7.90256 3.6863 7.83527C4.94459 7.70746 6.35491 7.45995 7.43028 7.17829C8.04104 7.01829 8.53834 6.86649 8.53834 6.84002C8.53834 6.76377 7.56669 5.4362 7.08417 4.85316C6.4501 4.08706 5.21068 2.81008 5.10114 2.81008C5.08376 2.81008 4.92664 2.90751 4.75197 3.02661ZM14.9746 4.64025C14.1217 5.40848 13.0503 6.12935 11.8606 6.73556C11.3582 6.99149 11.0743 7.1231 10.4495 7.38966L10.282 7.46112L10.5949 8.07585C10.7671 8.41397 10.9544 8.79807 11.0111 8.92947C11.0726 9.07163 11.136 9.16849 11.1677 9.16867C11.197 9.16885 11.3729 9.14401 11.5585 9.11345C12.0233 9.03699 13.3893 9.00757 13.9656 9.06161C14.8216 9.14188 15.6761 9.32416 16.5798 9.61918C16.857 9.70967 17.1062 9.79225 17.1336 9.80266C17.1757 9.81869 17.1796 9.74425 17.1583 9.32718C17.0628 7.44939 16.4825 5.92906 15.3176 4.50466L15.2359 4.40489L14.9746 4.64025ZM8.89366 7.9522C6.84017 8.60343 4.38198 9.00689 1.97726 9.08744L1.29359 9.11033L1.26922 9.30532C1.21858 9.71056 1.31995 10.7593 1.47423 11.4265C1.64397 12.1605 2.03492 13.1048 2.43679 13.7513C2.61029 14.0305 3.13591 14.7408 3.23448 14.8293C3.30263 14.8905 3.30831 14.8862 3.45286 14.6627C3.9094 13.9567 4.54105 13.1981 5.32033 12.4198C6.65125 11.0905 8.13832 10.1163 9.63094 9.59576C9.81169 9.53273 9.95961 9.46376 9.95961 9.44251C9.95961 9.39309 9.34981 8.16347 9.24173 7.99488L9.16014 7.86767L8.89366 7.9522ZM12.2692 10.1633C12.0835 10.1788 11.8495 10.2029 11.7492 10.2166L11.5667 10.2418L11.7427 10.7453C12.3313 12.4289 12.7406 14.4557 12.8253 16.1055C12.838 16.3534 12.8607 16.5762 12.8758 16.6005C12.9298 16.6879 13.7434 16.1658 14.3695 15.6421C15.1701 14.9722 15.8335 14.1174 16.3358 13.1083C16.7251 12.3261 17.1161 11.0579 16.9918 10.9801C16.795 10.8568 15.5281 10.4714 14.8985 10.3433C14.1023 10.1812 12.9766 10.1042 12.2692 10.1633ZM10.0484 10.6233C8.03027 11.3252 6.21048 12.7514 4.72134 14.7981C4.34406 15.3166 4.10899 15.7063 4.1545 15.7379C4.17316 15.7508 4.30771 15.8521 4.45354 15.9629C6.04102 17.1695 8.10347 17.7335 10.0819 17.502C10.5653 17.4455 11.2092 17.3133 11.5286 17.2051C11.7162 17.1415 11.7186 17.1389 11.7302 16.9841C11.7474 16.756 11.6723 15.7434 11.5896 15.0863C11.4381 13.8849 11.175 12.7186 10.7892 11.5397C10.5186 10.7126 10.4407 10.5198 10.3784 10.5224C10.3532 10.5235 10.2048 10.5689 10.0484 10.6233Z" stroke="url(#paint0_linear_659_260)" stroke-width="3.74738" mask="url(#path-1-inside-1_659_260)"/>
<defs>
<linearGradient id="paint0_linear_659_260" x1="0.121094" y1="9.59557" x2="18.2716" y2="9.59557" gradientUnits="userSpaceOnUse">
<stop stop-color="#5001EE"/>
<stop offset="1" stop-color="#DB0FDB"/>
</linearGradient>
</defs>
</svg>
