<svg width="18" height="18" viewBox="0 0 18 18" fill="none" xmlns="http://www.w3.org/2000/svg">
<mask id="path-1-inside-1_659_258" fill="white">
<path fill-rule="evenodd" clip-rule="evenodd" d="M8.13956 0.020222C8.07044 0.0283069 7.8348 0.0555359 7.61592 0.0807961C5.75538 0.295319 3.73356 1.33685 2.40093 2.76726C-1.64686 7.11205 -0.413173 14.111 4.87333 16.7936C5.38226 17.0518 6.01213 17.294 6.17496 17.294C6.32866 17.294 6.50339 17.1901 6.56048 17.0647C6.61113 16.9536 6.6358 15.2805 6.58755 15.2323C6.57489 15.2196 6.48533 15.2289 6.38856 15.2528C6.29175 15.2768 5.97694 15.2977 5.68894 15.2993C4.94245 15.3034 4.50863 15.1593 4.06396 14.7595C3.88847 14.6017 3.79753 14.4645 3.59633 14.0542C3.29844 13.4467 3.05615 13.1273 2.71989 12.8989C2.43943 12.7085 2.28971 12.5411 2.32276 12.4549C2.35787 12.3635 2.62132 12.2963 2.83174 12.3251C3.29136 12.3881 3.73319 12.7134 4.10363 13.2616C4.4561 13.7832 4.72399 13.9952 5.2051 14.1333C5.52021 14.2237 5.93308 14.1976 6.33578 14.0617L6.62659 13.9636L6.67857 13.7332C6.74937 13.4194 6.84434 13.2042 7.01462 12.9715L7.15814 12.7753L6.95765 12.7475C4.59166 12.4192 3.44514 11.2905 3.21571 9.06375C3.09808 7.92231 3.31679 7.00452 3.88219 6.26686L4.08419 6.00329L4.01913 5.83627C3.96995 5.70992 3.95416 5.50592 3.95441 4.99899C3.95466 4.40745 3.96677 4.28936 4.05734 3.99361L4.15993 3.65849L4.33985 3.6455C4.74724 3.61613 5.61555 3.94087 6.28145 4.37164L6.58792 4.56991L6.882 4.50137C8.05213 4.2287 9.29784 4.21316 10.4874 4.45638L10.992 4.5596L11.4476 4.28861C12.1634 3.86279 12.8852 3.6078 13.2703 3.64458C13.4018 3.65715 13.4229 3.67792 13.4907 3.8612C13.6968 4.41801 13.7356 5.22663 13.5825 5.77213L13.5129 6.02038L13.6594 6.20088C14.161 6.81886 14.4022 7.54889 14.4022 8.44929C14.4022 10.2915 13.7614 11.54 12.477 12.2002C11.9505 12.4708 11.5047 12.5989 10.557 12.7519L10.4191 12.7742L10.5473 12.9361C10.706 13.1365 10.8574 13.4741 10.9199 13.7667C10.95 13.908 10.9672 14.528 10.9672 15.4718C10.9672 17.0672 10.9744 17.1266 11.1827 17.2343C11.351 17.3213 11.4652 17.3092 11.8748 17.161C12.6518 16.8799 13.5827 16.343 14.3015 15.7614C17.7187 12.9968 18.5875 8.04965 16.3191 4.27219C14.883 1.88059 12.3747 0.299383 9.59971 0.0362241C9.17238 -0.00428437 8.42061 -0.0125367 8.13956 0.020222Z"/>
</mask>
<path fill-rule="evenodd" clip-rule="evenodd" d="M8.13956 0.020222C8.07044 0.0283069 7.8348 0.0555359 7.61592 0.0807961C5.75538 0.295319 3.73356 1.33685 2.40093 2.76726C-1.64686 7.11205 -0.413173 14.111 4.87333 16.7936C5.38226 17.0518 6.01213 17.294 6.17496 17.294C6.32866 17.294 6.50339 17.1901 6.56048 17.0647C6.61113 16.9536 6.6358 15.2805 6.58755 15.2323C6.57489 15.2196 6.48533 15.2289 6.38856 15.2528C6.29175 15.2768 5.97694 15.2977 5.68894 15.2993C4.94245 15.3034 4.50863 15.1593 4.06396 14.7595C3.88847 14.6017 3.79753 14.4645 3.59633 14.0542C3.29844 13.4467 3.05615 13.1273 2.71989 12.8989C2.43943 12.7085 2.28971 12.5411 2.32276 12.4549C2.35787 12.3635 2.62132 12.2963 2.83174 12.3251C3.29136 12.3881 3.73319 12.7134 4.10363 13.2616C4.4561 13.7832 4.72399 13.9952 5.2051 14.1333C5.52021 14.2237 5.93308 14.1976 6.33578 14.0617L6.62659 13.9636L6.67857 13.7332C6.74937 13.4194 6.84434 13.2042 7.01462 12.9715L7.15814 12.7753L6.95765 12.7475C4.59166 12.4192 3.44514 11.2905 3.21571 9.06375C3.09808 7.92231 3.31679 7.00452 3.88219 6.26686L4.08419 6.00329L4.01913 5.83627C3.96995 5.70992 3.95416 5.50592 3.95441 4.99899C3.95466 4.40745 3.96677 4.28936 4.05734 3.99361L4.15993 3.65849L4.33985 3.6455C4.74724 3.61613 5.61555 3.94087 6.28145 4.37164L6.58792 4.56991L6.882 4.50137C8.05213 4.2287 9.29784 4.21316 10.4874 4.45638L10.992 4.5596L11.4476 4.28861C12.1634 3.86279 12.8852 3.6078 13.2703 3.64458C13.4018 3.65715 13.4229 3.67792 13.4907 3.8612C13.6968 4.41801 13.7356 5.22663 13.5825 5.77213L13.5129 6.02038L13.6594 6.20088C14.161 6.81886 14.4022 7.54889 14.4022 8.44929C14.4022 10.2915 13.7614 11.54 12.477 12.2002C11.9505 12.4708 11.5047 12.5989 10.557 12.7519L10.4191 12.7742L10.5473 12.9361C10.706 13.1365 10.8574 13.4741 10.9199 13.7667C10.95 13.908 10.9672 14.528 10.9672 15.4718C10.9672 17.0672 10.9744 17.1266 11.1827 17.2343C11.351 17.3213 11.4652 17.3092 11.8748 17.161C12.6518 16.8799 13.5827 16.343 14.3015 15.7614C17.7187 12.9968 18.5875 8.04965 16.3191 4.27219C14.883 1.88059 12.3747 0.299383 9.59971 0.0362241C9.17238 -0.00428437 8.42061 -0.0125367 8.13956 0.020222Z" stroke="url(#paint0_linear_659_258)" stroke-width="4.9965" mask="url(#path-1-inside-1_659_258)"/>
<defs>
<linearGradient id="paint0_linear_659_258" x1="0" y1="8.64698" x2="17.5786" y2="8.64698" gradientUnits="userSpaceOnUse">
<stop stop-color="#5001EE"/>
<stop offset="1" stop-color="#DB0FDB"/>
</linearGradient>
</defs>
</svg>
