<svg width="18" height="18" viewBox="0 0 18 18" fill="none" xmlns="http://www.w3.org/2000/svg">
<path fill-rule="evenodd" clip-rule="evenodd" d="M2.42162 0.187596C1.59857 0.36645 0.888464 1.04347 0.647165 1.87934C0.550063 2.21565 0.549889 2.8104 0.64673 3.1478C0.890638 3.99719 1.60331 4.65686 2.47484 4.83984C2.85768 4.9202 3.04893 4.9202 3.43151 4.83971C3.88193 4.74496 4.25268 4.53993 4.61039 4.18774C5.56515 3.24768 5.56498 1.7825 4.60996 0.838654C4.24934 0.482207 3.97929 0.326704 3.51479 0.207903C3.12964 0.10941 2.80894 0.103452 2.42162 0.187596ZM12.7808 5.71398C12.733 5.72555 12.5373 5.76486 12.3459 5.80134C11.8873 5.88874 11.3452 6.11247 11.0088 6.35308C10.7423 6.54363 10.3292 6.95117 10.1843 7.16646C10.1135 7.27157 10.1109 7.25883 10.1087 6.7838C10.1062 6.22897 10.0586 6.08495 9.83255 5.94714C9.70192 5.86748 9.60508 5.86222 8.25835 5.86222C6.91162 5.86222 6.81478 5.86748 6.68415 5.94714C6.39136 6.12561 6.41024 5.73115 6.41024 11.6766C6.41024 16.808 6.41398 17.0676 6.48968 17.2088C6.64967 17.5071 6.70028 17.5159 8.25109 17.5159C9.76393 17.5159 9.84138 17.5047 10.0061 17.2621C10.0796 17.1539 10.0862 16.9426 10.1081 14.0371C10.1309 10.9917 10.1334 10.9211 10.2278 10.5925C10.3875 10.037 10.572 9.69803 10.8874 9.38024C11.1039 9.16204 11.2341 9.07037 11.4327 8.99632C11.9233 8.81329 12.5765 8.8339 12.9971 9.04567C13.3434 9.22 13.5309 9.41412 13.7145 9.78844C14.0368 10.4456 14.0306 10.3691 14.0509 13.9501C14.0707 17.4599 14.054 17.2579 14.3377 17.4308C14.4682 17.5104 14.5661 17.5156 15.9335 17.5156C17.3008 17.5156 17.3987 17.5104 17.5292 17.4308C17.6056 17.3842 17.7034 17.2922 17.7466 17.2262C17.8205 17.1134 17.825 16.9162 17.824 13.8432C17.8228 10.4296 17.8027 9.94712 17.6248 9.06298C17.2574 7.23669 16.2995 6.156 14.726 5.79264C14.4401 5.72663 12.9735 5.66732 12.7808 5.71398ZM1.37897 5.94619C1.08432 6.12782 1.10284 5.7212 1.11546 11.7284L1.12681 17.1623L1.25148 17.2925C1.3201 17.3641 1.42876 17.4444 1.49308 17.471C1.57292 17.5041 2.05238 17.5154 3.00684 17.5068C4.34061 17.4947 4.40923 17.4901 4.52638 17.4041C4.59387 17.3546 4.68332 17.2469 4.7251 17.1649C4.79629 17.0254 4.80116 16.6749 4.8012 11.6984C4.80129 5.93366 4.81329 6.22223 4.5643 5.99237L4.4465 5.88366L2.98235 5.872C1.58962 5.86096 1.51139 5.86457 1.37897 5.94619Z" fill="url(#paint0_linear_659_259)"/>
<defs>
<linearGradient id="paint0_linear_659_259" x1="0.574219" y1="8.8224" x2="17.8241" y2="8.8224" gradientUnits="userSpaceOnUse">
<stop stop-color="#5001EE"/>
<stop offset="1" stop-color="#DB0FDB"/>
</linearGradient>
</defs>
</svg>
