<svg width="19" height="18" viewBox="0 0 19 18" fill="none" xmlns="http://www.w3.org/2000/svg">
<path fill-rule="evenodd" clip-rule="evenodd" d="M5.29185 0C2.52457 0 0.28125 2.24332 0.28125 5.0106V12.8243C0.28125 15.5916 2.52457 17.8349 5.29185 17.8349H13.1056C15.8729 17.8349 18.1162 15.5916 18.1162 12.8243V5.0106C18.1162 2.24332 15.8729 0 13.1056 0H5.29185ZM5.22173 1.64649C3.40268 1.64649 1.92805 3.12112 1.92805 4.94017V12.8941C1.92805 14.7131 3.40268 16.1877 5.22173 16.1877H13.1406C14.9596 16.1877 16.4342 14.7131 16.4342 12.8941V4.94017C16.4342 3.12112 14.9596 1.64649 13.1406 1.64649H5.22173Z" fill="url(#paint0_linear_659_250)"/>
<path fill-rule="evenodd" clip-rule="evenodd" d="M9.19761 13.5249C11.723 13.5249 13.7702 11.4776 13.7702 8.95225C13.7702 6.42686 11.723 4.37964 9.19761 4.37964C6.67223 4.37964 4.625 6.42686 4.625 8.95225C4.625 11.4776 6.67223 13.5249 9.19761 13.5249ZM9.19689 11.9132C10.8515 11.9132 12.1927 10.5719 12.1927 8.91738C12.1927 7.26281 10.8515 5.92153 9.19689 5.92153C7.54233 5.92153 6.20105 7.26281 6.20105 8.91738C6.20105 10.5719 7.54233 11.9132 9.19689 11.9132Z" fill="url(#paint1_linear_659_250)"/>
<circle cx="13.9984" cy="4.15231" r="1.06869" fill="url(#paint2_linear_659_250)"/>
<defs>
<linearGradient id="paint0_linear_659_250" x1="0.28125" y1="8.91746" x2="18.1162" y2="8.91746" gradientUnits="userSpaceOnUse">
<stop stop-color="#5001EE"/>
<stop offset="1" stop-color="#DB0FDB"/>
</linearGradient>
<linearGradient id="paint1_linear_659_250" x1="4.625" y1="8.95225" x2="13.7702" y2="8.95225" gradientUnits="userSpaceOnUse">
<stop stop-color="#5001EE"/>
<stop offset="1" stop-color="#DB0FDB"/>
</linearGradient>
<linearGradient id="paint2_linear_659_250" x1="12.9297" y1="4.15231" x2="15.0671" y2="4.15231" gradientUnits="userSpaceOnUse">
<stop stop-color="#5001EE"/>
<stop offset="1" stop-color="#DB0FDB"/>
</linearGradient>
</defs>
</svg>
