<svg width="29" height="29" viewBox="0 0 29 29" fill="none" xmlns="http://www.w3.org/2000/svg">
<mask id="path-1-inside-1_659_279" fill="white">
<path fill-rule="evenodd" clip-rule="evenodd" d="M8.02256 0C3.59182 0 0 3.59182 0 8.02256V20.5333C0 24.964 3.59182 28.5558 8.02256 28.5558H20.5333C24.964 28.5558 28.5558 24.964 28.5558 20.5333V8.02256C28.5558 3.59182 24.964 0 20.5333 0H8.02256ZM7.91029 2.63623C4.99778 2.63623 2.63672 4.99728 2.63672 7.9098V20.6449C2.63672 23.5574 4.99778 25.9185 7.9103 25.9185H20.5893C23.5018 25.9185 25.8629 23.5574 25.8629 20.6449V7.9098C25.8629 4.99729 23.5018 2.63623 20.5893 2.63623H7.91029Z"/>
</mask>
<path d="M4 8.02256C4 5.80096 5.80096 4 8.02256 4V-4C1.38269 -4 -4 1.38268 -4 8.02256H4ZM4 20.5333V8.02256H-4V20.5333H4ZM8.02256 24.5558C5.80096 24.5558 4 22.7549 4 20.5333H-4C-4 27.1731 1.38268 32.5558 8.02256 32.5558V24.5558ZM20.5333 24.5558H8.02256V32.5558H20.5333V24.5558ZM24.5558 20.5333C24.5558 22.7549 22.7549 24.5558 20.5333 24.5558V32.5558C27.1731 32.5558 32.5558 27.1732 32.5558 20.5333H24.5558ZM24.5558 8.02256V20.5333H32.5558V8.02256H24.5558ZM20.5333 4C22.7549 4 24.5558 5.80096 24.5558 8.02256H32.5558C32.5558 1.38269 27.1732 -4 20.5333 -4V4ZM8.02256 4H20.5333V-4H8.02256V4ZM6.63672 7.9098C6.63672 7.20643 7.20691 6.63623 7.91029 6.63623V-1.36377C2.78864 -1.36377 -1.36328 2.78814 -1.36328 7.9098H6.63672ZM6.63672 20.6449V7.9098H-1.36328V20.6449H6.63672ZM7.9103 21.9185C7.20692 21.9185 6.63672 21.3483 6.63672 20.6449H-1.36328C-1.36328 25.7666 2.78865 29.9185 7.9103 29.9185V21.9185ZM20.5893 21.9185H7.9103V29.9185H20.5893V21.9185ZM21.8629 20.6449C21.8629 21.3483 21.2927 21.9185 20.5893 21.9185V29.9185C25.711 29.9185 29.8629 25.7666 29.8629 20.6449H21.8629ZM21.8629 7.9098V20.6449H29.8629V7.9098H21.8629ZM20.5893 6.63623C21.2927 6.63623 21.8629 7.20643 21.8629 7.9098H29.8629C29.8629 2.78815 25.7109 -1.36377 20.5893 -1.36377V6.63623ZM7.91029 6.63623H20.5893V-1.36377H7.91029V6.63623Z" fill="url(#paint0_linear_659_279)" mask="url(#path-1-inside-1_659_279)"/>
<mask id="path-3-inside-2_659_279" fill="white">
<path fill-rule="evenodd" clip-rule="evenodd" d="M14.2783 21.6553C18.3218 21.6553 21.5996 18.3774 21.5996 14.334C21.5996 10.2905 18.3218 7.0127 14.2783 7.0127C10.2349 7.0127 6.95703 10.2905 6.95703 14.334C6.95703 18.3774 10.2349 21.6553 14.2783 21.6553ZM14.2772 19.0749C16.9263 19.0749 19.0739 16.9273 19.0739 14.2782C19.0739 11.629 16.9263 9.48145 14.2772 9.48145C11.628 9.48145 9.48047 11.629 9.48047 14.2782C9.48047 16.9273 11.628 19.0749 14.2772 19.0749Z"/>
</mask>
<path d="M17.5996 14.334C17.5996 16.1683 16.1126 17.6553 14.2783 17.6553V25.6553C20.5309 25.6553 25.5996 20.5866 25.5996 14.334H17.5996ZM14.2783 11.0127C16.1126 11.0127 17.5996 12.4997 17.5996 14.334H25.5996C25.5996 8.08141 20.5309 3.0127 14.2783 3.0127V11.0127ZM10.957 14.334C10.957 12.4997 12.444 11.0127 14.2783 11.0127V3.0127C8.02575 3.0127 2.95703 8.08141 2.95703 14.334H10.957ZM14.2783 17.6553C12.444 17.6553 10.957 16.1683 10.957 14.334H2.95703C2.95703 20.5866 8.02575 25.6553 14.2783 25.6553V17.6553ZM15.0739 14.2782C15.0739 14.7182 14.7172 15.0749 14.2772 15.0749V23.0749C19.1355 23.0749 23.0739 19.1364 23.0739 14.2782H15.0739ZM14.2772 13.4814C14.7172 13.4814 15.0739 13.8381 15.0739 14.2782H23.0739C23.0739 9.41987 19.1355 5.48145 14.2772 5.48145V13.4814ZM13.4805 14.2782C13.4805 13.8381 13.8372 13.4814 14.2772 13.4814V5.48145C9.41889 5.48145 5.48047 9.41987 5.48047 14.2782H13.4805ZM14.2772 15.0749C13.8372 15.0749 13.4805 14.7182 13.4805 14.2782H5.48047C5.48047 19.1364 9.41889 23.0749 14.2772 23.0749V15.0749Z" fill="url(#paint1_linear_659_279)" mask="url(#path-3-inside-2_659_279)"/>
<defs>
<linearGradient id="paint0_linear_659_279" x1="0" y1="14.2779" x2="28.5558" y2="14.2779" gradientUnits="userSpaceOnUse">
<stop stop-color="#5001EE"/>
<stop offset="1" stop-color="#DB0FDB"/>
</linearGradient>
<linearGradient id="paint1_linear_659_279" x1="6.95703" y1="14.334" x2="21.5996" y2="14.334" gradientUnits="userSpaceOnUse">
<stop stop-color="#5001EE"/>
<stop offset="1" stop-color="#DB0FDB"/>
</linearGradient>
</defs>
</svg>
