<svg width="44" height="47" viewBox="0 0 44 47" fill="none" xmlns="http://www.w3.org/2000/svg">
<path d="M0.481934 29.2193V0.792771C0.481934 0.354936 0.836869 0 1.2747 0H42.7253C43.1631 0 43.5181 0.354936 43.5181 0.792772V13.3639C43.5181 13.8017 43.1631 14.1566 42.7253 14.1566H14.8651C14.4272 14.1566 14.0723 14.5116 14.0723 14.9494V29.2193C14.0723 29.6571 13.7174 30.012 13.2795 30.012H1.2747C0.836869 30.012 0.481934 29.6571 0.481934 29.2193Z" fill="url(#paint0_linear_663_418)"/>
<path d="M43.5181 17.7807V46.2072C43.5181 46.6451 43.1631 47 42.7253 47H1.27469C0.836857 47 0.481922 46.6451 0.481922 46.2072V33.6361C0.481922 33.1983 0.836857 32.8434 1.27469 32.8434H29.1349C29.5728 32.8434 29.9277 32.4884 29.9277 32.0506V17.7807C29.9277 17.3429 30.2826 16.988 30.7205 16.988H42.7253C43.1631 16.988 43.5181 17.3429 43.5181 17.7807Z" fill="url(#paint1_linear_663_418)"/>
<defs>
<linearGradient id="paint0_linear_663_418" x1="0.481934" y1="15.006" x2="43.5181" y2="15.006" gradientUnits="userSpaceOnUse">
<stop stop-color="#5001EE"/>
<stop offset="1" stop-color="#DB0FDB"/>
</linearGradient>
<linearGradient id="paint1_linear_663_418" x1="22" y1="47" x2="22" y2="16.988" gradientUnits="userSpaceOnUse">
<stop stop-color="#FBDDFB"/>
<stop offset="1" stop-color="#F8DAF8"/>
</linearGradient>
</defs>
</svg>
