<svg width="28" height="28" viewBox="0 0 28 28" fill="none" xmlns="http://www.w3.org/2000/svg">
<path d="M14.8454 22.2655L15.2648 22.2687M14.8454 22.2655L12.1466 27.8386C12.194 27.8386 12.2423 27.8387 12.2916 27.8387C14.7138 27.8387 14.8378 27.8208 15.1015 27.4323C15.2192 27.259 15.2299 26.9207 15.2648 22.2687M14.8454 22.2655L15.2648 22.2687M14.8454 22.2655L14.844 16.9829C14.844 16.9329 14.844 16.8832 14.844 16.834C14.8838 16.8373 14.9237 16.8402 14.964 16.8428C15.1233 16.8528 15.2783 16.8558 15.4288 16.8526C15.3047 17.3146 15.299 17.711 15.2648 22.2687M2.11322 3.69058C2.1204 3.58758 2.13599 3.48783 2.15873 3.39221C2.15874 3.39218 2.15874 3.39215 2.15875 3.39212C2.23795 3.05915 2.40388 2.77618 2.60359 2.57954L3.70088 3.69398C3.52332 3.69258 3.35353 3.69129 3.19159 3.69028C3.19142 3.69028 3.19126 3.69028 3.19109 3.69028C2.78095 3.68771 2.42119 3.6869 2.11322 3.69058ZM27.13 26.463C27.1316 26.4786 27.1314 26.4809 27.1304 26.4677C27.1302 26.4662 27.1301 26.4646 27.13 26.463ZM5.48918 3.70821L4.07622 3.69696L5.40265 3.31625C5.45585 3.50159 5.47931 3.63822 5.48918 3.70821ZM5.40246 3.3156L4.07443 3.69695L3.93222 3.69582L3.9319 3.69581L3.89949 3.69556L3.89933 3.69555L3.85096 3.69517L4.10501 2.48516L4.1871 2.16418C4.19254 2.16495 4.19731 2.16566 4.20138 2.16628C4.50929 2.23642 4.7856 2.39021 5.00174 2.61344C5.00177 2.61348 5.0018 2.61351 5.00183 2.61354C5.18358 2.80127 5.32278 3.03811 5.40246 3.3156ZM4.10348 2.49117L3.85075 3.69517L3.84719 3.69514C3.82995 3.695 3.81279 3.69487 3.79569 3.69473L4.10348 2.49117ZM4.10377 2.48976L3.79559 3.69473C3.78549 3.69465 3.77541 3.69457 3.76535 3.69449C3.76533 3.69449 3.7653 3.69449 3.76528 3.69449C3.75693 3.69442 3.7486 3.69436 3.74028 3.69429L3.4086 2.16795C3.41076 2.16744 3.41291 2.16694 3.41505 2.16645C3.42226 2.16534 3.43161 2.16397 3.44295 2.16244C3.44299 2.16244 3.44302 2.16243 3.44306 2.16243C3.50876 2.15356 3.64096 2.13926 3.80852 2.13924C3.9752 2.13922 4.1068 2.15334 4.17254 2.16216L4.10377 2.48976ZM3.40847 2.16798L3.74005 3.69429C3.72699 3.69419 3.71398 3.69409 3.701 3.69398L2.60368 2.57945C2.61867 2.56469 2.72201 2.46755 2.91253 2.36218C3.09466 2.26146 3.27137 2.20021 3.40847 2.16798ZM3.40127 2.16866C3.39877 2.16911 3.39757 2.16932 3.39759 2.16931C3.3976 2.16929 3.39885 2.16906 3.40127 2.16866ZM3.44262 2.16037L3.44252 2.16039L3.44262 2.16037ZM4.10531 2.48375L4.17282 2.1622C4.17798 2.16289 4.18272 2.16355 4.18705 2.16417L4.10531 2.48375ZM4.21846 2.16908C4.21848 2.16909 4.21723 2.16888 4.21463 2.1684C4.21715 2.16883 4.21844 2.16906 4.21846 2.16908Z" stroke="url(#paint0_linear_901_234)" stroke-width="11"/>
<defs>
<linearGradient id="paint0_linear_901_234" x1="0" y1="13.9193" x2="27.6191" y2="13.9193" gradientUnits="userSpaceOnUse">
<stop stop-color="#5001EE"/>
<stop offset="1" stop-color="#DB0FDB"/>
</linearGradient>
</defs>
</svg>
