<svg width="202" height="80" viewBox="0 0 202 80" fill="none" xmlns="http://www.w3.org/2000/svg">
<rect x="11" y="37" width="190.105" height="43" fill="url(#paint0_linear_659_246)"/>
<path d="M47.76 65V51.2H49.78V63.16H56.28V65H47.76ZM59.2417 61.92V54.56H61.1817V62.12C61.1817 62.9067 61.5751 63.3 62.3617 63.3H66.0217V54.56H67.9617V65H62.3017C60.2617 65 59.2417 63.9733 59.2417 61.92ZM71.9195 61.92V57.62C71.9195 55.58 72.9395 54.56 74.9795 54.56H78.8395L79.7595 55.24V56.26H75.0395C74.2529 56.26 73.8595 56.6467 73.8595 57.42V62.12C73.8595 62.9067 74.2529 63.3 75.0395 63.3H79.7595V64.32L78.8395 65H74.9795C72.9395 65 71.9195 63.9733 71.9195 61.92ZM85.7558 65C83.7024 65 82.6758 63.98 82.6758 61.94C82.6758 59.9 83.7024 58.88 85.7558 58.88H89.1358V57.42C89.1358 56.6467 88.7491 56.26 87.9758 56.26H83.6958V55.24L84.6158 54.56H88.0158C90.0558 54.56 91.0758 55.58 91.0758 57.62V65H85.7558ZM84.6158 62.12C84.6158 62.9067 85.0091 63.3 85.7958 63.3H89.1358V60.4H85.7958C85.0091 60.4 84.6158 60.7933 84.6158 61.58V62.12ZM94.7147 64.32V63.3H99.3347C100.121 63.3 100.515 62.9 100.515 62.1C100.515 61.2733 100.195 60.8067 99.5547 60.7L97.2547 60.32C95.5614 60.0267 94.7147 59.0933 94.7147 57.52C94.7147 55.5467 95.7414 54.56 97.7947 54.56H101.055L101.975 55.24V56.26H97.8347C97.0347 56.26 96.6347 56.66 96.6347 57.46C96.6347 58.2067 96.968 58.64 97.6347 58.76L99.9547 59.14C101.621 59.42 102.455 60.38 102.455 62.02C102.455 64.0067 101.421 65 99.3547 65H95.6347L94.7147 64.32ZM112.158 65V51.2H118.538C120.632 51.2 121.678 52.2533 121.678 54.36V55.68C121.678 56.1333 121.545 56.52 121.278 56.84L120.578 57.68L121.418 58.38C121.858 58.74 122.078 59.2733 122.078 59.98V61.84C122.078 63.9467 121.032 65 118.938 65H112.158ZM114.178 63.16H118.918C119.678 63.16 120.058 62.7867 120.058 62.04V59.86C120.058 59.1 119.678 58.72 118.918 58.72H114.178V63.16ZM114.178 56.88H118.518C119.278 56.88 119.658 56.5 119.658 55.74V54.16C119.658 53.4133 119.278 53.04 118.518 53.04H114.178V56.88ZM125.808 65V55.8C126.275 54.9733 127.161 54.56 128.468 54.56H130.528L131.448 55.24V56.26H128.848C128.328 56.26 127.961 56.3933 127.748 56.66V65H125.808ZM134.445 61.92V54.56H136.385V62.12C136.385 62.9067 136.778 63.3 137.565 63.3H141.225V54.56H143.165V65H137.505C135.465 65 134.445 63.9733 134.445 61.92ZM147.283 65V54.56H152.943C154.983 54.56 156.003 55.58 156.003 57.62V65H154.063V57.42C154.063 56.6467 153.676 56.26 152.903 56.26H149.223V65H147.283ZM159.88 61.92V57.62C159.88 55.58 160.9 54.56 162.94 54.56H165.74C167.78 54.56 168.8 55.58 168.8 57.62V61.92C168.8 63.9733 167.78 65 165.74 65H162.94C160.9 65 159.88 63.9733 159.88 61.92ZM161.82 62.12C161.82 62.9067 162.214 63.3 163 63.3H165.7C166.474 63.3 166.86 62.9067 166.86 62.12V57.42C166.86 56.6467 166.474 56.26 165.7 56.26H163C162.214 56.26 161.82 56.6467 161.82 57.42V62.12Z" fill="white"/>
<path fill-rule="evenodd" clip-rule="evenodd" d="M0.571881 0.175512C0.339497 0.300721 0.212169 0.412405 0.124658 0.567817C-0.12663 1.01423 -0.134453 0.982394 1.43547 5.90272C2.22465 8.37617 3.49869 12.3799 4.26657 14.7999C5.0345 17.2199 5.7064 19.2854 5.75969 19.39C5.94986 19.763 6.31246 19.9882 6.72003 19.9863C7.05453 19.9848 7.39078 19.8311 7.56618 19.5996C7.64223 19.4992 8.23004 18.1991 8.87244 16.7104C9.51478 15.2217 10.0557 13.9883 10.0745 13.9695C10.0932 13.9508 11.8126 15.6353 13.8953 17.7131C15.978 19.7908 17.7484 21.5314 17.8295 21.5811C18.0808 21.7351 18.5101 21.701 18.8256 21.502C19.2112 21.2589 21.3793 19.093 21.5124 18.8181C21.6414 18.5514 21.6509 18.2114 21.5369 17.9352C21.4786 17.7939 20.3148 16.5939 17.668 13.9456C15.2814 11.5578 13.902 10.1395 13.9353 10.1079C13.9644 10.0803 15.1982 9.53983 16.677 8.90678C18.1559 8.27367 19.4428 7.69743 19.5369 7.62622C19.8839 7.36336 20.0377 6.75513 19.8629 6.3368C19.7669 6.10713 19.464 5.84509 19.1679 5.73574C19.0378 5.68767 15.1914 4.45991 10.6203 3.00742C6.04916 1.55488 2.05251 0.283882 1.7388 0.182954C1.4251 0.0820255 1.10732 -0.000324961 1.03263 9.64134e-07C0.95794 0.000272569 0.750597 0.0792551 0.571881 0.175512Z" fill="url(#paint1_linear_659_246)"/>
<defs>
<linearGradient id="paint0_linear_659_246" x1="11" y1="58.5" x2="201.105" y2="58.5" gradientUnits="userSpaceOnUse">
<stop stop-color="#5001EE"/>
<stop offset="1" stop-color="#DB0FDB"/>
</linearGradient>
<linearGradient id="paint1_linear_659_246" x1="0" y1="10.8387" x2="21.6162" y2="10.8387" gradientUnits="userSpaceOnUse">
<stop stop-color="white"/>
</linearGradient>
</defs>
</svg>
