<svg width="43" height="43" viewBox="0 0 43 43" fill="none" xmlns="http://www.w3.org/2000/svg">
<mask id="path-1-inside-1_302_244" fill="white">
<path d="M13.1475 33.6514C14.7276 33.6514 17.9864 32.0713 20.3812 30.3555C28.5532 30.5529 34.6758 25.8498 34.6758 19.6901C34.6758 13.7649 28.7382 9 21.3441 9C13.9375 9 8 13.7649 8 19.6901C8 23.5291 10.4318 26.9361 14.1227 28.6642C13.5919 29.6642 12.6414 31.0097 12.123 31.701C11.4687 32.565 11.8761 33.6514 13.1475 33.6514ZM14.4313 31.5652C14.3202 31.6145 14.2708 31.5404 14.3449 31.4417C14.9868 30.6641 15.9003 29.4667 16.3076 28.7014C16.6409 28.0842 16.5422 27.541 15.8015 27.1829C12.1723 25.4918 10.0738 22.7885 10.0738 19.6901C10.0738 14.9375 15.0609 11.0615 21.3441 11.0615C27.6149 11.0615 32.6019 14.9375 32.6019 19.6901C32.6019 24.4549 27.6149 28.331 21.3441 28.331C21.1095 28.331 20.7639 28.3186 20.3195 28.3063C19.8134 28.3063 19.4431 28.4544 18.9987 28.8125C17.5667 29.8493 15.4806 31.1455 14.4313 31.5652Z"/>
</mask>
<path d="M20.3812 30.3555L20.4769 26.3916L19.1504 26.3595L18.0718 27.1324L20.3812 30.3555ZM14.1227 28.6642L17.625 30.5231L19.5794 26.8409L15.804 25.0733L14.1227 28.6642ZM12.123 31.701L15.2841 34.0945L15.2896 34.0873L15.295 34.0801L12.123 31.701ZM14.4313 31.5652L12.9589 27.8837L12.8904 27.911L12.823 27.9409L14.4313 31.5652ZM14.3449 31.4417L11.2871 28.9174L11.2282 28.9888L11.1727 29.0628L14.3449 31.4417ZM16.3076 28.7014L12.8187 26.8174L12.8131 26.8279L12.8075 26.8384L16.3076 28.7014ZM15.8015 27.1829L17.5274 23.6132L17.5019 23.6008L17.4762 23.5889L15.8015 27.1829ZM20.3195 28.3063L20.429 24.3427L20.3743 24.3412H20.3195V28.3063ZM18.9987 28.8125L21.3242 32.024L21.407 31.964L21.4865 31.8999L18.9987 28.8125ZM13.1475 37.6165C14.8783 37.6165 16.7763 36.8717 18.1298 36.2427C19.6658 35.5289 21.2929 34.5801 22.6906 33.5786L18.0718 27.1324C17.0747 27.8468 15.875 28.5459 14.7879 29.0511C14.2466 29.3026 13.7866 29.4811 13.4351 29.59C13.0333 29.7143 12.9687 29.6863 13.1475 29.6863V37.6165ZM20.2855 34.3194C29.6571 34.5458 38.6409 28.9834 38.6409 19.6901H30.7107C30.7107 22.7162 27.4492 26.56 20.4769 26.3916L20.2855 34.3194ZM38.6409 19.6901C38.6409 10.8033 30.067 5.03492 21.3441 5.03492V12.9651C27.4095 12.9651 30.7107 16.7264 30.7107 19.6901H38.6409ZM21.3441 5.03492C12.6113 5.03492 4.03492 10.8013 4.03492 19.6901H11.9651C11.9651 16.7284 15.2637 12.9651 21.3441 12.9651V5.03492ZM4.03492 19.6901C4.03492 25.2997 7.57995 29.979 12.4414 32.2552L15.804 25.0733C13.2837 23.8932 11.9651 21.7585 11.9651 19.6901H4.03492ZM10.6204 26.8053C10.2412 27.5197 9.44586 28.662 8.95094 29.3219L15.295 34.0801C15.837 33.3575 16.9426 31.8088 17.625 30.5231L10.6204 26.8053ZM8.96179 29.3075C7.92647 30.6749 7.39918 32.7242 8.32672 34.6913C9.30369 36.7632 11.3444 37.6165 13.1475 37.6165V29.6863C13.6792 29.6863 14.8805 29.9964 15.4995 31.3092C16.0691 32.5171 15.6652 33.5912 15.2841 34.0945L8.96179 29.3075ZM12.823 27.9409C13.1864 27.7797 13.8405 27.5602 14.6817 27.6285C15.5879 27.7022 16.7824 28.1435 17.5862 29.3129C18.3511 30.4257 18.341 31.587 18.1982 32.2943C18.0552 33.0025 17.747 33.514 17.5171 33.8205L11.1727 29.0628C10.9058 29.4187 10.576 29.9765 10.4249 30.7248C10.274 31.4723 10.2692 32.6676 11.0511 33.805C12.8133 36.3686 15.5947 35.3869 16.0396 35.1894L12.823 27.9409ZM17.4027 33.9659C18.0459 33.1868 19.1936 31.7182 19.8078 30.5644L12.8075 26.8384C12.6069 27.2152 11.9278 28.1414 11.2871 28.9174L17.4027 33.9659ZM19.7965 30.5854C20.238 29.7678 20.7412 28.362 20.262 26.7288C19.7661 25.0384 18.5127 24.0895 17.5274 23.6132L14.0757 30.7527C13.831 30.6344 12.9973 30.1361 12.6526 28.9612C12.3247 27.8434 12.7105 27.0178 12.8187 26.8174L19.7965 30.5854ZM17.4762 23.5889C14.7149 22.3022 14.0389 20.7381 14.0389 19.6901H6.10876C6.10876 24.8388 9.62971 28.6815 14.1268 30.777L17.4762 23.5889ZM14.0389 19.6901C14.0389 18.0319 16.2206 15.0266 21.3441 15.0266V7.09641C13.9011 7.09641 6.10876 11.8432 6.10876 19.6901H14.0389ZM21.3441 15.0266C26.452 15.0266 28.6368 18.0295 28.6368 19.6901H36.567C36.567 11.8456 28.7777 7.09641 21.3441 7.09641V15.0266ZM28.6368 19.6901C28.6368 21.3661 26.448 24.366 21.3441 24.366V32.2961C28.7817 32.2961 36.567 27.5437 36.567 19.6901H28.6368ZM21.3441 24.366C21.1825 24.366 20.9413 24.3569 20.429 24.3427L20.21 32.2699C20.5864 32.2803 21.0365 32.2961 21.3441 32.2961V24.366ZM20.3195 24.3412C18.7473 24.3412 17.5235 24.909 16.5108 25.725L21.4865 31.8999C21.5017 31.8877 21.3511 32.013 21.0665 32.1231C20.7558 32.2433 20.4797 32.2714 20.3195 32.2714V24.3412ZM16.6732 25.6009C15.2871 26.6046 13.5296 27.6554 12.9589 27.8837L15.9038 35.2467C17.4315 34.6357 19.8464 33.094 21.3242 32.024L16.6732 25.6009Z" fill="#DB0FDB" mask="url(#path-1-inside-1_302_244)"/>
</svg>
