<svg width="22" height="25" viewBox="0 0 22 25" fill="none" xmlns="http://www.w3.org/2000/svg">
<path fill-rule="evenodd" clip-rule="evenodd" d="M1.57085e-06 0.174057C-0.00196053 0.485271 1.83482 21.2285 1.88393 21.4494L1.93159 21.6639L6.10897 22.8582C8.40652 23.5151 10.3718 24.0537 10.4762 24.055C10.5807 24.0564 12.5602 23.5199 14.8751 22.863L19.0841 21.6687L19.1322 21.4518C19.1813 21.2301 21.017 0.489575 21.0155 0.174057L21.0146 0H10.5079H0.00114071L1.57085e-06 0.174057ZM3.99889 5.71224C4.058 6.41714 4.10838 7.01533 4.11079 7.04141C4.11326 7.06748 6.39379 7.08888 9.1787 7.08888H14.2422L14.2372 7.32623C14.2344 7.4568 14.1844 8.06201 14.126 8.67121L14.0198 9.77885L10.6777 9.79524L7.3356 9.81164L7.37053 10.0801C7.38977 10.2277 7.43516 10.6903 7.47142 11.108C7.50769 11.5258 7.55389 11.9886 7.57402 12.1365L7.61073 12.4055H10.7088H13.8069L13.7694 12.6745C13.7488 12.8224 13.6635 13.6086 13.5798 14.4216C13.496 15.2345 13.4186 15.9063 13.4077 15.9145C13.3967 15.9226 12.7418 16.1076 11.9524 16.3254L10.517 16.7215L9.0725 16.3269C8.27804 16.1098 7.60883 15.9149 7.58541 15.8936C7.562 15.8724 7.51193 15.5132 7.47414 15.0955C7.43636 14.6778 7.38971 14.2149 7.37047 14.067L7.33541 13.798H6.04181C4.85221 13.798 4.74809 13.8069 4.74752 13.9088C4.74632 14.103 5.01639 17.6264 5.03405 17.6467C5.04329 17.6575 6.2784 18.049 7.77865 18.5168L10.5063 19.3673L13.1723 18.6118C14.6385 18.1963 15.8535 17.8409 15.8723 17.8221C15.9088 17.7855 17.0845 5.06665 17.0882 4.6679L17.0904 4.43055H10.4909H3.89141L3.99889 5.71224Z" fill="url(#paint0_linear_1209_408)"/>
<defs>
<linearGradient id="paint0_linear_1209_408" x1="0" y1="12.0275" x2="21.0155" y2="12.0275" gradientUnits="userSpaceOnUse">
<stop stop-color="#5001EE"/>
<stop offset="1" stop-color="#DB0FDB"/>
</linearGradient>
</defs>
</svg>
