<svg width="22" height="24" viewBox="0 0 22 24" fill="none" xmlns="http://www.w3.org/2000/svg">
<path fill-rule="evenodd" clip-rule="evenodd" d="M0.061685 0.728366C0.129599 1.52997 1.43282 16.2227 1.72366 19.4656C1.82403 20.5849 1.93574 21.5304 1.97191 21.5666C2.00808 21.6026 3.94282 22.165 6.27128 22.8161L10.5049 24L14.7625 22.8152C17.1041 22.1636 19.0492 21.6012 19.0849 21.5655C19.1431 21.5074 21.015 0.945971 21.0231 0.276277L21.0265 0H10.5132H0L0.061685 0.728366ZM3.95417 4.8474C3.95779 5.08218 4.10467 6.87929 4.28068 8.84085L4.60056 12.4073L9.20323 12.4335C13.5211 12.458 13.8029 12.4704 13.7572 12.6344C13.7303 12.7305 13.6528 13.4987 13.5848 14.3413C13.5168 15.1839 13.4495 15.8733 13.4355 15.8733C13.4213 15.8733 12.7565 16.0498 11.9582 16.2655L10.5066 16.6575L9.06238 16.2589C8.26811 16.0397 7.60896 15.851 7.59771 15.8398C7.58646 15.8285 7.54044 15.3681 7.49544 14.8166L7.41356 13.8138L6.07316 13.7857L4.73277 13.7577L4.8052 14.6396C4.84509 15.1248 4.92837 16.0634 4.99026 16.7255L5.10288 17.9292L7.66472 18.6521C9.07373 19.0496 10.3333 19.3781 10.464 19.3823C10.6863 19.3891 15.795 18.0081 15.9016 17.9124C15.9654 17.8551 16.6816 9.91944 16.632 9.82038C16.6112 9.77899 14.4543 9.74503 11.8389 9.74503H7.08373L7.02988 9.51899C7.00035 9.39471 6.94439 8.78439 6.90561 8.16272L6.83518 7.0325H11.8599H16.8846L16.9438 6.60552C16.9763 6.37074 17.0329 5.78302 17.0695 5.29949L17.136 4.42043H10.5418H3.94754L3.95417 4.8474Z" fill="url(#paint0_linear_1209_403)"/>
<defs>
<linearGradient id="paint0_linear_1209_403" x1="0" y1="12" x2="21.0265" y2="12" gradientUnits="userSpaceOnUse">
<stop stop-color="#5001EE"/>
<stop offset="1" stop-color="#DB0FDB"/>
</linearGradient>
</defs>
</svg>
