<svg width="18" height="19" viewBox="0 0 18 19" fill="none" xmlns="http://www.w3.org/2000/svg">
<mask id="path-1-inside-1_659_258" fill="white">
<path fill-rule="evenodd" clip-rule="evenodd" d="M8.54972 0.855183C8.4806 0.863268 8.24496 0.890497 8.02608 0.915757C6.16554 1.13028 4.14372 2.17181 2.81109 3.60222C-1.2367 7.94701 -0.0030162 14.946 5.28349 17.6285C5.79242 17.8868 6.42229 18.1289 6.58512 18.1289C6.73882 18.1289 6.91354 18.025 6.97064 17.8997C7.02129 17.7886 7.04596 16.1155 6.9977 16.0672C6.98505 16.0546 6.89549 16.0638 6.79872 16.0878C6.70191 16.1118 6.3871 16.1327 6.0991 16.1343C5.35261 16.1384 4.91878 15.9943 4.47411 15.5944C4.29863 15.4367 4.20769 15.2995 4.00648 14.8891C3.7086 14.2816 3.4663 13.9623 3.13004 13.7339C2.84958 13.5435 2.69987 13.376 2.73292 13.2899C2.76802 13.1984 3.03147 13.1312 3.24189 13.16C3.70152 13.223 4.14334 13.5484 4.51378 14.0966C4.86625 14.6182 5.13414 14.8302 5.61526 14.9683C5.93036 15.0587 6.34324 15.0326 6.74594 14.8967L7.03674 14.7986L7.08873 14.5682C7.15953 14.2544 7.25449 14.0392 7.42478 13.8065L7.5683 13.6103L7.36781 13.5825C5.00181 13.2541 3.8553 12.1255 3.62586 9.89871C3.50823 8.75727 3.72695 7.83948 4.29235 7.10182L4.49435 6.83825L4.42929 6.67123C4.38011 6.54488 4.36432 6.34088 4.36457 5.83395C4.36482 5.24241 4.37693 5.12432 4.46749 4.82857L4.57008 4.49345L4.75001 4.48046C5.15739 4.4511 6.02571 4.77583 6.69161 5.2066L6.99808 5.40487L7.29215 5.33633C8.46229 5.06367 9.708 5.04812 10.8976 5.29134L11.4022 5.39456L11.8578 5.12357C12.5735 4.69775 13.2953 4.44276 13.6805 4.47954C13.8119 4.49211 13.833 4.51288 13.9009 4.69616C14.1069 5.25297 14.1457 6.06159 13.9927 6.60709L13.9231 6.85534L14.0695 7.03585C14.5712 7.65382 14.8124 8.38385 14.8124 9.28425C14.8124 11.1265 14.1716 12.375 12.8872 13.0351C12.3606 13.3057 11.9149 13.4338 10.9672 13.5869L10.8292 13.6092L10.9574 13.771C11.1162 13.9714 11.2676 14.309 11.33 14.6017C11.3601 14.743 11.3773 15.363 11.3773 16.3068C11.3773 17.9022 11.3846 17.9615 11.5929 18.0692C11.7612 18.1563 11.8753 18.1442 12.285 17.996C13.062 17.7148 13.9928 17.178 14.7117 16.5964C18.1289 13.8318 18.9976 8.88462 16.7293 5.10715C15.2932 2.71556 12.7849 1.13434 10.0099 0.871185C9.58254 0.830677 8.83076 0.822424 8.54972 0.855183Z"/>
</mask>
<path fill-rule="evenodd" clip-rule="evenodd" d="M8.54972 0.855183C8.4806 0.863268 8.24496 0.890497 8.02608 0.915757C6.16554 1.13028 4.14372 2.17181 2.81109 3.60222C-1.2367 7.94701 -0.0030162 14.946 5.28349 17.6285C5.79242 17.8868 6.42229 18.1289 6.58512 18.1289C6.73882 18.1289 6.91354 18.025 6.97064 17.8997C7.02129 17.7886 7.04596 16.1155 6.9977 16.0672C6.98505 16.0546 6.89549 16.0638 6.79872 16.0878C6.70191 16.1118 6.3871 16.1327 6.0991 16.1343C5.35261 16.1384 4.91878 15.9943 4.47411 15.5944C4.29863 15.4367 4.20769 15.2995 4.00648 14.8891C3.7086 14.2816 3.4663 13.9623 3.13004 13.7339C2.84958 13.5435 2.69987 13.376 2.73292 13.2899C2.76802 13.1984 3.03147 13.1312 3.24189 13.16C3.70152 13.223 4.14334 13.5484 4.51378 14.0966C4.86625 14.6182 5.13414 14.8302 5.61526 14.9683C5.93036 15.0587 6.34324 15.0326 6.74594 14.8967L7.03674 14.7986L7.08873 14.5682C7.15953 14.2544 7.25449 14.0392 7.42478 13.8065L7.5683 13.6103L7.36781 13.5825C5.00181 13.2541 3.8553 12.1255 3.62586 9.89871C3.50823 8.75727 3.72695 7.83948 4.29235 7.10182L4.49435 6.83825L4.42929 6.67123C4.38011 6.54488 4.36432 6.34088 4.36457 5.83395C4.36482 5.24241 4.37693 5.12432 4.46749 4.82857L4.57008 4.49345L4.75001 4.48046C5.15739 4.4511 6.02571 4.77583 6.69161 5.2066L6.99808 5.40487L7.29215 5.33633C8.46229 5.06367 9.708 5.04812 10.8976 5.29134L11.4022 5.39456L11.8578 5.12357C12.5735 4.69775 13.2953 4.44276 13.6805 4.47954C13.8119 4.49211 13.833 4.51288 13.9009 4.69616C14.1069 5.25297 14.1457 6.06159 13.9927 6.60709L13.9231 6.85534L14.0695 7.03585C14.5712 7.65382 14.8124 8.38385 14.8124 9.28425C14.8124 11.1265 14.1716 12.375 12.8872 13.0351C12.3606 13.3057 11.9149 13.4338 10.9672 13.5869L10.8292 13.6092L10.9574 13.771C11.1162 13.9714 11.2676 14.309 11.33 14.6017C11.3601 14.743 11.3773 15.363 11.3773 16.3068C11.3773 17.9022 11.3846 17.9615 11.5929 18.0692C11.7612 18.1563 11.8753 18.1442 12.285 17.996C13.062 17.7148 13.9928 17.178 14.7117 16.5964C18.1289 13.8318 18.9976 8.88462 16.7293 5.10715C15.2932 2.71556 12.7849 1.13434 10.0099 0.871185C9.58254 0.830677 8.83076 0.822424 8.54972 0.855183Z" stroke="#E9E4F2" stroke-width="4.9965" mask="url(#path-1-inside-1_659_258)"/>
</svg>
