<svg width="19" height="18" viewBox="0 0 19 18" fill="none" xmlns="http://www.w3.org/2000/svg">
<mask id="path-1-inside-1_659_250" fill="white">
<path fill-rule="evenodd" clip-rule="evenodd" d="M5.29185 0C2.52457 0 0.28125 2.24332 0.28125 5.0106V12.8243C0.28125 15.5916 2.52457 17.8349 5.29185 17.8349H13.1056C15.8729 17.8349 18.1162 15.5916 18.1162 12.8243V5.0106C18.1162 2.24332 15.8729 0 13.1056 0H5.29185ZM5.22173 1.64649C3.40268 1.64649 1.92805 3.12112 1.92805 4.94017V12.8941C1.92805 14.7131 3.40268 16.1877 5.22173 16.1877H13.1406C14.9596 16.1877 16.4342 14.7131 16.4342 12.8941V4.94017C16.4342 3.12112 14.9596 1.64649 13.1406 1.64649H5.22173Z"/>
</mask>
<path d="M2.7795 5.0106C2.7795 3.62307 3.90432 2.49825 5.29185 2.49825V-2.49825C1.14482 -2.49825 -2.217 0.863577 -2.217 5.0106H2.7795ZM2.7795 12.8243V5.0106H-2.217V12.8243H2.7795ZM5.29185 15.3367C3.90432 15.3367 2.7795 14.2119 2.7795 12.8243H-2.217C-2.217 16.9714 1.14483 20.3332 5.29185 20.3332V15.3367ZM13.1056 15.3367H5.29185V20.3332H13.1056V15.3367ZM15.6179 12.8243C15.6179 14.2119 14.4931 15.3367 13.1056 15.3367V20.3332C17.2526 20.3332 20.6144 16.9713 20.6144 12.8243H15.6179ZM15.6179 5.0106V12.8243H20.6144V5.0106H15.6179ZM13.1056 2.49825C14.4931 2.49825 15.6179 3.62307 15.6179 5.0106H20.6144C20.6144 0.863572 17.2526 -2.49825 13.1056 -2.49825V2.49825ZM5.29185 2.49825H13.1056V-2.49825H5.29185V2.49825ZM4.4263 4.94017C4.4263 4.50087 4.78243 4.14474 5.22173 4.14474V-0.85176C2.02293 -0.85176 -0.570205 1.74138 -0.570205 4.94017H4.4263ZM4.4263 12.8941V4.94017H-0.570205V12.8941H4.4263ZM5.22173 13.6895C4.78242 13.6895 4.4263 13.3334 4.4263 12.8941H-0.570205C-0.570205 16.0929 2.02293 18.686 5.22173 18.686V13.6895ZM13.1406 13.6895H5.22173V18.686H13.1406V13.6895ZM13.936 12.8941C13.936 13.3334 13.5799 13.6895 13.1406 13.6895V18.686C16.3394 18.686 18.9325 16.0928 18.9325 12.8941H13.936ZM13.936 4.94017V12.8941H18.9325V4.94017H13.936ZM13.1406 4.14474C13.5799 4.14474 13.936 4.50087 13.936 4.94017H18.9325C18.9325 1.74137 16.3394 -0.85176 13.1406 -0.85176V4.14474ZM5.22173 4.14474H13.1406V-0.85176H5.22173V4.14474Z" fill="#E9E4F2" mask="url(#path-1-inside-1_659_250)"/>
<mask id="path-3-inside-2_659_250" fill="white">
<path fill-rule="evenodd" clip-rule="evenodd" d="M9.19761 13.5249C11.723 13.5249 13.7702 11.4776 13.7702 8.95225C13.7702 6.42686 11.723 4.37964 9.19761 4.37964C6.67223 4.37964 4.625 6.42686 4.625 8.95225C4.625 11.4776 6.67223 13.5249 9.19761 13.5249ZM9.19689 11.9132C10.8515 11.9132 12.1927 10.5719 12.1927 8.91738C12.1927 7.26281 10.8515 5.92153 9.19689 5.92153C7.54233 5.92153 6.20105 7.26281 6.20105 8.91738C6.20105 10.5719 7.54233 11.9132 9.19689 11.9132Z"/>
</mask>
<path d="M11.272 8.95225C11.272 10.0979 10.3432 11.0266 9.19761 11.0266V16.0231C13.1027 16.0231 16.2685 12.8574 16.2685 8.95225H11.272ZM9.19761 6.87789C10.3432 6.87789 11.272 7.80661 11.272 8.95225H16.2685C16.2685 5.04712 13.1027 1.88139 9.19761 1.88139V6.87789ZM7.12325 8.95225C7.12325 7.80661 8.05197 6.87789 9.19761 6.87789V1.88139C5.29248 1.88139 2.12675 5.04712 2.12675 8.95225H7.12325ZM9.19761 11.0266C8.05197 11.0266 7.12325 10.0979 7.12325 8.95225H2.12675C2.12675 12.8574 5.29248 16.0231 9.19761 16.0231V11.0266ZM9.69449 8.91738C9.69449 9.19219 9.47171 9.41497 9.19689 9.41497V14.4115C12.2312 14.4115 14.691 11.9517 14.691 8.91738H9.69449ZM9.19689 8.41978C9.47171 8.41978 9.69449 8.64256 9.69449 8.91738H14.691C14.691 5.88307 12.2312 3.42328 9.19689 3.42328V8.41978ZM8.6993 8.91738C8.6993 8.64256 8.92208 8.41978 9.19689 8.41978V3.42328C6.16259 3.42328 3.70279 5.88307 3.70279 8.91738H8.6993ZM9.19689 9.41497C8.92208 9.41497 8.6993 9.19219 8.6993 8.91738H3.70279C3.70279 11.9517 6.16259 14.4115 9.19689 14.4115V9.41497Z" fill="#E9E4F2" mask="url(#path-3-inside-2_659_250)"/>
</svg>
