<svg width="28" height="40" viewBox="0 0 28 40" fill="none" xmlns="http://www.w3.org/2000/svg">
<path fill-rule="evenodd" clip-rule="evenodd" d="M12.8917 0.00984839C8.56421 0.21222 4.59567 2.47656 2.18136 6.12083C0.431833 8.76164 -0.31804 12.0412 0.124388 15.117C0.588602 18.3443 2.30262 22.5206 5.20749 27.5023C6.93212 30.4599 9.07444 33.6693 11.3995 36.7782C12.3916 38.1048 13.3091 39.2658 13.6558 39.6332L13.7679 39.7521L14.0514 39.3949C15.0367 38.1533 16.3737 36.36 17.4597 34.8232C22.6546 27.4722 25.9526 20.9765 26.8597 16.3089C27.1713 14.7057 27.2073 13.4145 26.985 11.8212C26.6974 9.75998 25.931 7.74526 24.7737 6.00809C23.6739 4.35723 22.1819 2.92684 20.5074 1.91807C18.6193 0.780595 16.561 0.147672 14.3219 0.0160462C14.0102 -0.00227777 13.224 -0.00567724 12.8917 0.00984839ZM12.9953 5.37709C12.1662 5.45213 11.5422 5.57884 10.8603 5.81071C7.98819 6.78721 5.84688 9.26578 5.29606 12.2512C5.19899 12.7774 5.1721 13.1024 5.17138 13.7593C5.17067 14.3812 5.18473 14.5794 5.26627 15.0963C5.72224 17.9864 7.7119 20.473 10.4457 21.5692C12.2793 22.3044 14.3355 22.3652 16.2135 21.7397C18.035 21.133 19.621 19.8922 20.6575 18.2628C22.4865 15.3877 22.3886 11.6835 20.41 8.90015C20.0158 8.34556 19.4557 7.74159 18.938 7.31288C17.6635 6.25747 16.1841 5.62069 14.5292 5.41523C14.2811 5.38445 13.2088 5.35777 12.9953 5.37709Z" fill="url(#paint0_linear_55_2195)"/>
<defs>
<linearGradient id="paint0_linear_55_2195" x1="0" y1="19.876" x2="27.1272" y2="19.876" gradientUnits="userSpaceOnUse">
<stop stop-color="#5001EE"/>
<stop offset="1" stop-color="#DB0FDB"/>
</linearGradient>
</defs>
</svg>
