<svg width="29" height="29" viewBox="0 0 29 29" fill="none" xmlns="http://www.w3.org/2000/svg">
<path fill-rule="evenodd" clip-rule="evenodd" d="M5.91509 0.0121399C5.18047 0.127248 4.94316 0.178805 4.53103 0.312896C3.54485 0.633736 2.69134 1.16229 1.92041 1.92953C1.16208 2.68428 0.627088 3.54903 0.306908 4.53774C-0.0143723 5.52975 9.8827e-05 5.08082 9.8827e-05 14.0652C9.8827e-05 23.0496 -0.0143723 22.6007 0.306908 23.5927C1.04185 25.8622 2.99413 27.5723 5.39237 28.0473C5.67931 28.1041 6.30366 28.1236 7.8409 28.1236C9.754 28.1236 9.91951 28.116 10.1137 28.0196C10.3794 27.8876 10.5665 27.6428 10.6553 27.311C10.7825 26.8351 10.5451 26.296 10.1137 26.0818C9.92363 25.9874 9.7162 25.9748 7.86841 25.9461C5.72311 25.9127 5.67898 25.9078 4.91245 25.6211C4.2316 25.3663 3.39695 24.6924 2.95539 24.0407C2.66349 23.61 2.54475 23.3659 2.35867 22.8139L2.20102 22.3462V14.0927C2.20102 6.26552 2.2062 5.82093 2.30155 5.4848C2.74487 3.92175 3.91505 2.75158 5.47809 2.30826C5.8019 2.21642 6.09397 2.20773 8.85882 2.20773C11.8521 2.20773 11.8898 2.2091 12.3215 2.33412C13.0298 2.53919 13.6527 2.89508 14.2222 3.41994C14.8422 3.9913 15.0982 4.08451 15.619 3.92852C16.025 3.80687 16.3695 3.33273 16.3695 2.89552C16.3695 2.45792 16.003 1.96387 15.2513 1.38805C14.4575 0.780043 13.6177 0.385857 12.5729 0.13088C12.1324 0.0233646 11.9293 0.0159365 9.07892 0.00361131C7.41447 -0.0035417 5.99074 0.000254899 5.91509 0.0121399ZM9.0371 5.67875C7.05242 6.03756 5.40777 7.45903 4.76516 9.37097C4.4825 10.212 4.4814 10.2404 4.49725 16.5987L4.512 22.5113L4.64257 22.7213C4.71437 22.8368 4.87355 22.9978 4.9962 23.0789C5.18201 23.2019 5.28034 23.2266 5.58495 23.2266C5.88956 23.2266 5.98788 23.2019 6.1737 23.0789C6.29634 22.9978 6.45552 22.8368 6.52733 22.7213L6.6579 22.5113L6.68541 16.4862L6.71292 10.4612L6.83529 10.1035C7.0167 9.57318 7.32863 9.08755 7.73173 8.70794C8.16405 8.30083 8.6241 8.04711 9.19425 7.90125C9.60604 7.79593 9.82707 7.79258 16.3145 7.79258C22.8019 7.79258 23.0229 7.79593 23.4347 7.90125C24.5395 8.18385 25.4208 9.00699 25.7926 10.1035C25.9106 10.4516 25.9146 10.5468 25.9424 13.6525C25.9692 16.6389 25.9777 16.8574 26.0751 17.0533C26.2071 17.3191 26.4518 17.5061 26.7836 17.5949C27.2595 17.7222 27.7986 17.4847 28.0129 17.0533C28.1114 16.855 28.1169 16.6703 28.1169 13.57C28.1169 10.3444 28.1151 10.2889 27.9917 9.80422C27.7488 8.85051 27.2093 7.89795 26.5237 7.21236C25.7066 6.39521 24.7029 5.87678 23.5481 5.6754C22.8608 5.55556 9.70167 5.55858 9.0371 5.67875ZM18.4014 17.7225C16.6792 18.0035 14.9605 18.7399 13.0684 20.0075C12.037 20.6985 11.5859 21.2957 11.3942 22.2239C11.2852 22.7515 11.2852 22.9863 11.3942 23.514C11.5911 24.4672 12.0408 25.051 13.1274 25.7636C14.9364 26.95 16.652 27.696 18.3228 28.0226C19.0081 28.1565 20.4483 28.1559 21.129 28.0215C22.8325 27.685 24.3917 27.0111 26.2736 25.798C27.2908 25.1424 27.6768 24.7027 27.96 23.8774C28.1711 23.2624 28.1715 22.4767 27.9611 21.8637C27.6844 21.0576 27.3432 20.6569 26.3822 20.0092C24.6696 18.855 23.1123 18.1505 21.5127 17.8059C20.7975 17.6519 19.1112 17.6067 18.4014 17.7225ZM19.0656 19.8209C17.3345 20.1387 16.0811 20.6648 14.3444 21.8027C13.8215 22.1452 13.7054 22.2474 13.6165 22.4433C13.4822 22.7391 13.4824 22.999 13.6169 23.2955C13.7082 23.4966 13.8259 23.597 14.4548 24.01C15.8876 24.9509 17.4011 25.6104 18.5914 25.8123C19.2167 25.9184 20.2351 25.9184 20.8604 25.8123C22.049 25.6107 23.5486 24.9603 24.9583 24.0351C25.604 23.6113 25.7226 23.5106 25.8249 23.2992C25.9707 22.9979 25.9737 22.7481 25.8349 22.4424C25.7454 22.2451 25.6315 22.1451 25.107 21.8032C23.5984 20.8195 22.208 20.1893 20.9593 19.9231C20.5388 19.8335 19.3476 19.7692 19.0656 19.8209ZM19.3226 21.5826C18.8111 21.7398 18.4053 22.3211 18.4053 22.8966C18.4053 23.5942 19.0689 24.2445 19.7809 24.2445C20.4929 24.2445 21.1565 23.5942 21.1565 22.8966C21.1565 22.5464 20.9932 22.1526 20.7453 21.9046C20.3687 21.528 19.8687 21.4149 19.3226 21.5826Z" fill="url(#paint0_linear_55_2859)"/>
<defs>
<linearGradient id="paint0_linear_55_2859" x1="0" y1="14.0618" x2="28.1186" y2="14.0618" gradientUnits="userSpaceOnUse">
<stop stop-color="#5001EE"/>
<stop offset="1" stop-color="#DB0FDB"/>
</linearGradient>
</defs>
</svg>
