<svg width="22" height="24" viewBox="0 0 22 24" fill="none" xmlns="http://www.w3.org/2000/svg">
<path fill-rule="evenodd" clip-rule="evenodd" d="M0 0.0338842C0 0.0525152 0.360281 3.97646 0.800633 8.7538C1.24095 13.5311 1.6856 18.3551 1.78868 19.4738C1.89175 20.5925 1.9848 21.5165 1.99543 21.5271C2.02178 21.5535 10.5284 23.964 10.5955 23.9641C10.6573 23.9642 19.1701 21.5524 19.1947 21.5278C19.2087 21.5139 21.1856 0.24046 21.1895 0.0622217C21.1908 0.00309331 20.6632 0 10.5955 0C3.90564 0 0 0.01248 0 0.0338842ZM5.42367 4.59551C5.41186 4.69816 5.2514 6.43016 5.06708 8.44437C4.88277 10.4586 4.72511 12.1639 4.71679 12.2341L4.70161 12.3615L9.23722 12.3857C11.7318 12.399 13.7785 12.4156 13.7855 12.4226C13.7981 12.4352 13.5118 15.7969 13.4969 15.8122C13.4759 15.8339 10.6058 16.651 10.5599 16.6485C10.4959 16.6449 7.79997 15.8707 7.69668 15.8262C7.62966 15.7974 7.61881 15.7257 7.54443 14.822C7.50038 14.2867 7.46486 13.8288 7.4655 13.8043C7.46635 13.7695 7.17846 13.7599 6.14138 13.7599H4.81617L5.00419 15.7937C5.10762 16.9122 5.20682 17.8362 5.2247 17.847C5.24258 17.8577 6.46437 18.209 7.9398 18.6276L10.6224 19.3887L13.2845 18.633C14.7486 18.2173 15.9617 17.8628 15.9803 17.8452C16.0069 17.82 16.7393 10.1708 16.745 9.85769L16.7465 9.77769H12.1066H7.4666L7.46656 9.6088C7.46646 9.31138 7.57533 7.13064 7.59275 7.0805C7.60687 7.04001 8.12021 7.03635 10.7647 7.05807C12.5 7.07229 13.9227 7.08623 13.9262 7.08904C13.9297 7.09185 13.9506 7.39791 13.9727 7.76924C13.9947 8.14055 14.0201 8.48035 14.0292 8.52437L14.0457 8.60437H15.3783C16.356 8.60437 16.711 8.59352 16.711 8.56362C16.711 8.54122 16.583 7.60758 16.4265 6.48883C16.2701 5.37008 16.1421 4.44444 16.1421 4.43182C16.1421 4.4192 13.7352 4.40885 10.7936 4.40885H5.44507L5.42367 4.59551Z" fill="url(#paint0_linear_1209_421)"/>
<defs>
<linearGradient id="paint0_linear_1209_421" x1="0" y1="11.9821" x2="21.1895" y2="11.9821" gradientUnits="userSpaceOnUse">
<stop stop-color="#5001EE"/>
<stop offset="1" stop-color="#DB0FDB"/>
</linearGradient>
</defs>
</svg>
