<svg width="31" height="24" viewBox="0 0 31 24" fill="none" xmlns="http://www.w3.org/2000/svg">
<path fill-rule="evenodd" clip-rule="evenodd" d="M13.511 0.0106125C12.295 0.0748603 11.0765 0.308322 9.99123 0.685034C9.54996 0.838217 8.92573 1.07918 8.43627 1.28525C4.12896 3.0989 1.05229 5.73439 0.189974 8.349C0.0394433 8.80539 0.000195447 9.03186 2.58327e-06 9.44505C-0.000166173 9.75264 0.00778948 9.82357 0.0663238 10.0357C0.408585 11.2766 1.33004 12.4056 3.06018 13.7039C3.4077 13.9647 3.9535 14.3531 4.49461 14.7247C5.26621 15.2546 5.92626 15.7407 6.0083 15.8396C6.03195 15.8681 5.96859 15.9091 5.63332 16.0825C4.13113 16.8595 2.94846 17.6667 2.16707 18.4482C1.77023 18.8452 1.55574 19.1237 1.37551 19.4761C0.806657 20.5883 0.887033 21.8693 1.57223 22.6116C1.75557 22.8102 1.94347 22.9284 2.17508 22.9909C2.82814 23.1671 3.65644 23.1633 4.35876 22.9807C5.92366 22.574 7.28921 21.3193 7.82117 19.7994C8.23316 18.6224 8.22976 17.1879 7.81274 16.22L7.7346 16.0386L8.18186 15.7761C8.70066 15.4715 9.44138 15.0588 9.45134 15.0687C9.45507 15.0725 9.42154 15.1962 9.37682 15.3435C9.17568 16.006 9.08841 16.6214 9.08849 17.3766C9.08853 17.9039 9.09314 17.9648 9.15529 18.2565C9.37171 19.2726 9.82178 20.0763 10.2678 20.2431C10.4342 20.3054 10.7338 20.3307 10.9109 20.2976C11.2161 20.2405 11.4679 20.0454 11.7096 19.6789C11.8847 19.4135 12.3028 18.5652 12.5711 17.9311C12.6805 17.6725 12.7754 17.4555 12.782 17.4489C12.7885 17.4423 12.7879 17.4748 12.7805 17.5212C12.732 17.8262 12.7103 18.382 12.7356 18.6711C12.8044 19.4548 13.0564 19.8456 13.5147 19.8784C13.7161 19.8929 13.8482 19.8503 14.0509 19.7058C14.3693 19.4785 14.6233 19.1505 14.9861 18.4976C15.9318 16.7959 16.6014 15.4048 17.31 13.67C17.4142 13.4147 17.5062 13.2059 17.5144 13.2059C17.5226 13.2059 17.543 13.2846 17.5598 13.3807C17.6028 13.6273 17.7669 14.2625 17.8541 14.5198C17.8946 14.6391 18.0468 14.9879 18.1925 15.2948L18.4573 15.8529L18.1438 16.2712C17.9714 16.5013 17.633 16.9228 17.3918 17.2078C16.8862 17.8056 16.4453 18.3508 16.3344 18.5154C16.0605 18.9218 16.1675 19.3017 16.588 19.4155C16.714 19.4496 16.8022 19.4544 17.0849 19.4424C17.5042 19.4247 17.8109 19.3629 18.1976 19.2182C19.1108 18.8766 19.6662 18.4374 19.9579 17.8263C20.1254 17.4756 20.1528 17.337 20.1523 16.8462C20.1518 16.3641 20.1257 16.2264 19.9363 15.7038L19.8262 15.4001L20.04 15.0805C20.5161 14.3687 21.0171 13.5175 21.4266 12.7246C21.6482 12.2956 21.6704 12.2615 21.6857 12.3268C21.695 12.3661 21.7319 12.5339 21.7677 12.6996C21.9119 13.3663 22.0381 13.7372 22.3241 14.3349L22.5125 14.7286L22.2983 14.9255C21.6753 15.4983 21.2685 16.018 20.9951 16.5904C20.8044 16.9899 20.733 17.2717 20.7321 17.6297C20.7315 17.8834 20.7384 17.9346 20.7885 18.0454C20.8545 18.1913 20.9908 18.3242 21.1503 18.3978C21.2373 18.438 21.3066 18.449 21.4667 18.4481C21.6431 18.4472 21.7126 18.4329 21.9669 18.3452C22.7256 18.0837 23.1771 17.8129 23.6613 17.329C23.9019 17.0885 24.0285 16.9163 24.1576 16.6537C24.282 16.4009 24.3206 16.221 24.3209 15.8939C24.3212 15.5712 24.2801 15.3369 24.1566 14.958L24.0794 14.7213L24.1411 14.6894C24.343 14.5852 24.9837 14.4235 25.4445 14.3605C25.7406 14.32 26.633 14.3199 26.9753 14.3603C28.0645 14.4889 28.8686 14.8084 29.444 15.3411C29.9724 15.8303 30.2751 16.5889 30.1599 17.1347C30.0609 17.6036 29.7902 17.9584 29.2613 18.3129C29.1099 18.4143 29.071 18.4699 29.0996 18.5443C29.1998 18.8055 30.0362 18.3679 30.4248 17.851C30.674 17.5194 30.7912 17.1867 30.8133 16.7478C30.8915 15.1909 29.5946 13.7882 27.7289 13.4118C27.2808 13.3214 26.9182 13.2941 26.3726 13.3097C25.5125 13.3343 24.7654 13.498 23.998 13.8299C23.872 13.8844 23.7603 13.929 23.7497 13.9291C23.7181 13.9292 23.2633 12.9836 23.1939 12.7739C23.1245 12.5639 23.0336 11.9358 23.0338 11.6681C23.0341 11.3333 23.1182 10.9311 23.3126 10.3351C23.3714 10.155 23.4194 9.98562 23.4194 9.95864C23.4194 9.88902 23.3337 9.78904 23.2278 9.73499C22.9096 9.57265 21.9071 9.63892 21.5958 9.84285C21.5322 9.88454 21.4083 10.2459 21.297 10.7144C21.2578 10.8794 21.1868 11.1087 21.1391 11.2241C20.9238 11.7457 20.2849 12.9465 19.6758 13.9743L19.3848 14.4655L19.2529 14.2034C19.064 13.8279 18.9843 13.5949 18.9341 13.2719C18.8144 12.5021 18.8516 12.1494 19.1496 11.2302C19.2664 10.8699 19.2668 10.8675 19.2249 10.7893C19.1313 10.6147 18.8484 10.5408 18.3567 10.5627C17.8536 10.585 17.4363 10.6912 17.3717 10.8132C17.3594 10.8364 17.3042 11.0289 17.2489 11.2411C17.1268 11.7092 17.0622 11.8734 16.4807 13.1938C14.8649 16.8628 14.2482 18.1441 14.1462 18.0435C14.1349 18.0324 14.1264 17.8589 14.1272 17.6578C14.1285 17.343 14.1394 17.2403 14.2063 16.9185C14.2975 16.4801 14.523 15.5744 14.7646 14.6765C14.9566 13.9626 14.9649 13.874 14.8528 13.7271C14.8174 13.6806 14.7274 13.6136 14.6503 13.5762C14.5361 13.5208 14.4787 13.5087 14.3267 13.5081C14.1558 13.5073 14.1334 13.5133 14.0288 13.587C13.9665 13.6308 13.9106 13.6617 13.9045 13.6557C13.8985 13.6496 13.9051 13.5614 13.9192 13.4597C13.9556 13.1981 13.9504 12.7414 13.9088 12.545C13.8291 12.1687 13.6213 11.8861 13.3486 11.7828C12.7635 11.5614 11.9228 11.879 11.0306 12.6584C10.7813 12.8762 10.4906 13.1857 10.3082 13.4273C10.2063 13.5624 10.1871 13.5741 8.9589 14.246C8.27368 14.6209 7.58528 14.997 7.42915 15.0819L7.14528 15.2362L6.80141 14.9021C6.43291 14.5441 6.09497 14.2597 5.3866 13.7114C4.38248 12.9341 4.21114 12.7947 3.76961 12.3956C2.94366 11.6491 2.47691 10.9271 2.3353 10.1768C2.30343 10.0079 2.29783 9.88037 2.30856 9.56559C2.32814 8.99073 2.41956 8.63005 2.68429 8.08294C3.44571 6.50941 5.4536 4.87419 8.41216 3.41816C10.1691 2.55353 11.8613 2.04581 13.4748 1.89926C13.8746 1.86295 14.7764 1.86941 15.1331 1.91114C15.9284 2.00418 16.6028 2.22563 17.044 2.53863C17.2414 2.6787 17.4744 2.93265 17.5586 3.09972C17.6909 3.36204 17.7347 3.54769 17.7476 3.9002C17.7668 4.424 17.6633 4.85888 17.3824 5.43448C16.5435 7.15375 14.5206 8.65245 12.1971 9.27603C10.7642 9.6606 9.54979 9.70117 8.63304 9.39512C8.15529 9.23564 7.84237 9.04902 7.52279 8.73304C7.36033 8.57238 7.30167 8.52894 7.24724 8.52894C6.96165 8.52894 7.10196 9.06833 7.50483 9.51913C7.88222 9.94141 8.55483 10.3279 9.17156 10.4769C9.67038 10.5974 9.86074 10.6143 10.7145 10.614C11.4136 10.6137 11.5743 10.6065 11.9106 10.5604C12.899 10.4247 13.8076 10.1897 14.7044 9.83784C16.8828 8.98311 18.7223 7.02482 19.2501 4.99844C19.3692 4.54111 19.4019 4.28882 19.4034 3.81582C19.4048 3.36025 19.3838 3.18282 19.2824 2.79263C18.9451 1.49429 17.6551 0.534118 15.7531 0.165675C15.0728 0.0339008 14.2056 -0.0260559 13.511 0.0106125ZM12.6797 12.977C12.2254 13.1638 11.8201 13.6065 11.3888 14.3872C11.103 14.9045 10.9243 15.3512 10.7988 15.8618C10.6727 16.3749 10.6337 16.7489 10.6497 17.2915C10.6667 17.8653 10.7307 18.1709 10.8729 18.3573C11.0327 18.5669 11.2471 18.383 11.5528 17.774C11.7649 17.3512 12.3899 15.7645 12.6812 14.9089C13.0179 13.9199 13.1835 13.2257 13.1251 13.0486C13.0781 12.9061 12.9157 12.8801 12.6797 12.977ZM22.716 15.5424C22.5905 15.6753 22.4268 15.869 22.3522 15.9726C21.9798 16.4899 21.6368 17.4047 21.7929 17.4646C21.8455 17.4848 22.2459 17.2843 22.428 17.1466C22.8994 16.7902 23.1424 16.1356 23.0231 15.5433C23.0005 15.4312 22.9735 15.3307 22.9631 15.32C22.9526 15.3093 22.8415 15.4093 22.716 15.5424ZM6.32682 16.7634C5.18537 17.4514 4.12175 18.2605 3.66792 18.7861C2.95176 19.6155 2.67124 20.7248 3.06218 21.1815C3.3306 21.495 4.03197 21.4652 4.7415 21.11C5.81708 20.5716 6.63511 19.4945 6.87272 18.3039C6.92645 18.0347 6.93429 17.2616 6.8859 17.0029C6.83164 16.7127 6.78164 16.5087 6.76486 16.5089C6.75596 16.509 6.55886 16.6235 6.32682 16.7634ZM18.6702 16.9477C18.3761 17.3294 18.2171 17.5171 17.7737 18.0063C17.5574 18.245 17.3768 18.456 17.3726 18.475C17.3674 18.4979 17.385 18.5097 17.4248 18.5097C17.6692 18.5097 18.3544 17.9648 18.6182 17.5607C18.7935 17.2922 18.904 16.9572 18.883 16.758C18.8753 16.6844 18.8684 16.6905 18.6702 16.9477Z" fill="url(#paint0_linear_1209_415)"/>
<defs>
<linearGradient id="paint0_linear_1209_415" x1="0" y1="11.5602" x2="30.8166" y2="11.5602" gradientUnits="userSpaceOnUse">
<stop stop-color="#5001EE"/>
<stop offset="1" stop-color="#DB0FDB"/>
</linearGradient>
</defs>
</svg>
