<svg width="76" height="83" viewBox="0 0 76 83" fill="none" xmlns="http://www.w3.org/2000/svg">
<path d="M0 51.6V1.4C0 0.626801 0.626801 0 1.4 0H74.6C75.3732 0 76 0.626801 76 1.4V23.6C76 24.3732 75.3732 25 74.6 25H25.4C24.6268 25 24 25.6268 24 26.4V51.6C24 52.3732 23.3732 53 22.6 53H1.4C0.626801 53 0 52.3732 0 51.6Z" fill="url(#paint0_linear_663_418)"/>
<path d="M76 31.4V81.6C76 82.3732 75.3732 83 74.6 83H1.4C0.626801 83 0 82.3732 0 81.6V59.4C0 58.6268 0.626801 58 1.4 58H50.6C51.3732 58 52 57.3732 52 56.6V31.4C52 30.6268 52.6268 30 53.4 30H74.6C75.3732 30 76 30.6268 76 31.4Z" fill="url(#paint1_linear_663_418)"/>
<defs>
<linearGradient id="paint0_linear_663_418" x1="0" y1="26.5" x2="76" y2="26.5" gradientUnits="userSpaceOnUse">
<stop stop-color="#5001EE"/>
<stop offset="1" stop-color="#DB0FDB"/>
</linearGradient>
<linearGradient id="paint1_linear_663_418" x1="38" y1="83" x2="38" y2="30" gradientUnits="userSpaceOnUse">
<stop stop-color="#FBDDFB"/>
<stop offset="1" stop-color="#F8DAF8"/>
</linearGradient>
</defs>
</svg>
