<svg width="368" height="327" viewBox="0 0 368 327" fill="none" xmlns="http://www.w3.org/2000/svg">
<rect width="368" height="326.114" fill="#0A0909"/>
<path fill-rule="evenodd" clip-rule="evenodd" d="M97.9265 132.553L64.6973 165.782C62.5626 167.917 62.5626 171.378 64.6973 173.513L89.7252 198.541L101.439 186.827L113.152 198.541L138.217 173.476C140.337 171.355 140.354 167.923 138.254 165.783L105.694 132.59C103.566 130.42 100.076 130.404 97.9265 132.553ZM101.439 186.827L118.618 169.647L101.439 152.468L84.2589 169.647L101.439 186.827Z" fill="#F94319"/>
<path d="M265.632 154.16H258.25V178.152H265.632V154.16Z" fill="#F3EBE6"/>
<path d="M176.626 178.152H184.008V156.919C184.008 155.395 182.773 154.16 181.249 154.16H161.852C160.329 154.16 159.094 155.395 159.094 156.919V175.393C159.094 176.916 160.329 178.152 161.852 178.152H174.78V170.77H166.476V161.542H176.626V178.152Z" fill="#F3EBE6"/>
<path d="M203.84 161.542V154.16H189.528C188.005 154.16 186.77 155.395 186.77 156.919V178.152H194.151V161.542H203.84Z" fill="#F3EBE6"/>
<path d="M227.821 154.16H209.356C207.833 154.16 206.598 155.395 206.598 156.919V175.393C206.598 176.916 207.833 178.152 209.356 178.152H227.821V170.77H213.98V161.542H227.821V154.16Z" fill="#F3EBE6"/>
<path d="M252.733 154.16H233.337C231.813 154.16 230.578 155.395 230.578 156.919V175.393C230.578 176.916 231.813 178.152 233.337 178.152H246.265V170.77H237.96V161.542H248.11V178.152H255.492V156.919C255.492 155.395 254.257 154.16 252.733 154.16Z" fill="#F3EBE6"/>
<path d="M284.077 161.566V154.184H271.149C269.626 154.184 268.391 155.419 268.391 156.943V175.417C268.391 176.94 269.626 178.175 271.149 178.175H290.546C292.07 178.175 293.305 176.94 293.305 175.417V147.263H285.923V170.793H275.311V161.566H284.077Z" fill="#F3EBE6"/>
</svg>
