<svg width="368" height="328" viewBox="0 0 368 328" fill="none" xmlns="http://www.w3.org/2000/svg">
<rect width="368" height="328" fill="#050004"/>
<path d="M177.389 100.808L177.389 100.808C179.732 100.6 189.843 100.401 199.866 100.367C208.057 100.34 212.623 100.343 215.232 100.436C216.54 100.482 217.338 100.551 217.849 100.645C218.355 100.737 218.54 100.848 218.655 100.953C218.797 101.081 218.906 101.218 218.998 101.527C219.098 101.858 219.174 102.376 219.229 103.266C219.338 105.04 219.353 108.178 219.353 113.98C219.353 118.563 219.317 121.73 219.233 123.799C219.191 124.834 219.136 125.586 219.07 126.099C219.037 126.356 219.002 126.544 218.966 126.674C218.947 126.745 218.931 126.786 218.922 126.806C218.921 126.807 218.92 126.807 218.919 126.807C218.882 126.821 218.823 126.839 218.735 126.858C218.56 126.895 218.304 126.932 217.953 126.966C217.252 127.034 216.208 127.088 214.746 127.13C211.824 127.213 207.263 127.248 200.51 127.248C195.277 127.248 190.375 127.298 186.529 127.383C182.694 127.468 179.883 127.588 178.854 127.73C166.561 129.421 156.385 136.863 150.826 148.22L150.826 148.22C149.962 149.985 149.078 152.531 148.408 154.983C147.74 157.428 147.272 159.824 147.262 161.284C147.259 161.624 147.202 161.993 147.111 162.307C147.02 162.627 146.909 162.838 146.829 162.925C146.825 162.926 146.787 162.948 146.677 162.978C146.545 163.013 146.355 163.048 146.093 163.082C145.572 163.148 144.807 163.202 143.752 163.245C141.645 163.329 138.415 163.365 133.733 163.365C132.806 163.365 131.94 163.367 131.132 163.368C128.677 163.372 126.754 163.375 125.248 163.336C123.233 163.285 122.023 163.158 121.302 162.888C120.953 162.757 120.745 162.601 120.614 162.426C120.482 162.25 120.402 162.021 120.369 161.696C120.336 161.367 120.353 160.964 120.398 160.459C120.422 160.196 120.45 159.927 120.481 159.635C120.512 159.347 120.545 159.037 120.577 158.687C122.524 137.914 133.969 119.75 151.792 109.142L151.612 108.84L151.792 109.142C159.012 104.845 169.176 101.536 177.389 100.808ZM220.819 164.668L220.819 164.668C220.888 164.585 221.006 164.489 221.352 164.402C221.707 164.312 222.262 164.243 223.164 164.192C224.963 164.091 228.054 164.069 233.488 164.069C234.525 164.069 235.485 164.067 236.374 164.064C238.752 164.058 240.622 164.054 242.093 164.1C244.133 164.164 245.327 164.326 246.02 164.672C246.349 164.836 246.552 165.036 246.682 165.283C246.817 165.539 246.889 165.873 246.904 166.328C246.928 167.002 246.829 167.853 246.701 168.966C246.651 169.391 246.598 169.855 246.545 170.363C245.925 176.289 244.38 182.449 242.154 187.866C233.862 208.04 215.812 222.534 194.343 226.257C189.858 227.035 187.231 227.128 169.012 227.128C161.398 227.128 156.284 227.095 153.024 227.011C151.393 226.969 150.232 226.915 149.458 226.847C149.069 226.813 148.787 226.776 148.594 226.738C148.497 226.719 148.431 226.701 148.39 226.686C148.388 226.686 148.387 226.685 148.386 226.685C148.377 226.663 148.361 226.623 148.342 226.554C148.307 226.424 148.272 226.236 148.239 225.978C148.172 225.463 148.118 224.709 148.076 223.67C147.992 221.595 147.956 218.417 147.956 213.817C147.956 207.553 147.958 204.422 148.081 202.767C148.143 201.934 148.233 201.523 148.343 201.285C148.44 201.075 148.555 200.986 148.795 200.817L148.795 200.817C148.942 200.714 149.204 200.606 149.82 200.515C150.431 200.424 151.351 200.357 152.78 200.308C155.635 200.21 160.469 200.187 168.814 200.187C179.378 200.187 185.081 200.15 188.909 199.791C192.764 199.429 194.731 198.74 197.816 197.453C202.168 195.638 206.549 192.506 210.238 188.585L209.982 188.344L210.238 188.585C215.283 183.221 218.298 177.057 219.569 169.518C219.767 168.348 220.013 167.204 220.25 166.307C220.369 165.857 220.484 165.474 220.589 165.182C220.641 165.036 220.689 164.917 220.731 164.826C220.776 164.729 220.807 164.683 220.819 164.668Z" fill="url(#paint0_linear_682_713)" fill-opacity="0.7" stroke="url(#paint1_linear_682_713)" stroke-width="0.703926" stroke-miterlimit="16" stroke-linejoin="round"/>
<circle cx="181.157" cy="163.791" r="11.5226" fill="url(#paint2_linear_682_713)" stroke="url(#paint3_linear_682_713)" stroke-width="1.3556"/>
<defs>
<linearGradient id="paint0_linear_682_713" x1="218.829" y1="124.547" x2="114.451" y2="200.318" gradientUnits="userSpaceOnUse">
<stop stop-color="#FF016C"/>
<stop offset="1" stop-color="#120209" stop-opacity="0"/>
</linearGradient>
<linearGradient id="paint1_linear_682_713" x1="228.306" y1="124.547" x2="140.218" y2="178.654" gradientUnits="userSpaceOnUse">
<stop stop-color="#FF016C"/>
<stop offset="1" stop-color="#FF016C" stop-opacity="0"/>
</linearGradient>
<linearGradient id="paint2_linear_682_713" x1="190.647" y1="158.368" x2="168.884" y2="170.436" gradientUnits="userSpaceOnUse">
<stop stop-color="#F8EBF0"/>
<stop offset="1" stop-color="white" stop-opacity="0"/>
</linearGradient>
<linearGradient id="paint3_linear_682_713" x1="189.291" y1="155.657" x2="171.668" y2="170.569" gradientUnits="userSpaceOnUse">
<stop stop-color="#FFF6F6"/>
<stop offset="1" stop-color="#FFF6F6" stop-opacity="0"/>
</linearGradient>
</defs>
</svg>
