<svg width="368" height="328" viewBox="0 0 368 328" fill="none" xmlns="http://www.w3.org/2000/svg">
<rect width="368" height="328" fill="#000201"/>
<path d="M237.692 100.446C211.492 143.787 164.118 152.731 131.03 99.4321C129.62 97.1602 128.914 96.0243 128.133 95.4894C126.913 94.655 125.514 94.4679 124.118 94.9526C123.223 95.2633 122.305 96.1178 120.468 97.8269C117.995 100.128 116.759 101.278 116.385 102.231C115.759 103.826 115.932 105.153 116.946 106.535C117.552 107.36 119.264 108.273 122.687 110.099L122.687 110.099C161.501 130.801 172.539 193.004 122.232 217.004C118.932 218.578 117.282 219.365 116.62 220.243C115.685 221.483 115.455 222.806 115.917 224.289C116.244 225.338 117.408 226.511 119.736 228.857C121.858 230.996 122.919 232.066 123.927 232.405C125.329 232.878 126.653 232.698 127.879 231.87C128.761 231.275 129.562 229.849 131.165 226.998C157.77 179.682 210.979 180.464 236.777 226.905C238.372 229.776 239.169 231.212 240.042 231.811C241.278 232.659 242.611 232.843 244.031 232.362C245.033 232.022 246.097 230.95 248.224 228.806C250.539 226.472 251.696 225.306 252.027 224.283C252.506 222.796 252.301 221.514 251.381 220.252C250.747 219.383 249.109 218.548 245.833 216.877C204.802 195.958 197.47 139.951 247.328 110.273C250.153 108.591 251.566 107.75 252.144 106.82C252.871 105.649 253.027 104.418 252.616 103.102C252.288 102.057 251.22 100.98 249.084 98.8273C246.962 96.6883 245.901 95.6188 244.857 95.2832C243.55 94.8629 242.306 95.0115 241.134 95.7277C240.199 96.2996 239.363 97.6818 237.692 100.446Z" fill="#00CA87"/>
</svg>
