<svg width="368" height="328" viewBox="0 0 368 328" fill="none" xmlns="http://www.w3.org/2000/svg">
<rect width="368" height="328" fill="white"/>
<path d="M120.709 97.2287C123.145 96.5709 130.587 95.3722 137.246 94.5641C150.761 92.9254 189.819 92.5058 202.725 93.8612C211.431 94.7766 213.563 95.7413 212.577 98.3201C212.091 99.5885 206.273 99.8407 177.461 99.8407C141.696 99.8407 128.782 100.935 125.093 104.28C118.409 110.34 136.816 114.759 168.101 114.607C185.344 114.522 201.714 112.746 215.767 109.436C219.302 108.603 224.881 107.914 228.166 107.905C233.204 107.891 234.545 107.454 236.736 105.102C246.83 94.2658 267.379 95.4602 273.434 107.235C275.405 111.066 275.457 111.773 274.06 115.82C272.667 119.855 272.218 120.23 268.789 120.23C265.075 120.23 265.036 120.183 264.713 115.119C264.28 108.367 261.447 106.321 253.571 107.08C249.069 107.514 247.463 108.247 245.019 110.987C241.51 114.924 240.978 121.021 243.687 126.27C247.05 132.784 259.607 135.59 268.837 131.89C274.222 129.732 276.789 131.197 273.672 134.648C268.413 140.47 251.475 141.708 242.174 136.95C239.613 135.639 237.398 134.722 237.25 134.911C237.103 135.1 235.583 137.91 233.872 141.156C232.162 144.403 227.137 150.72 222.706 155.196C209.761 168.269 194.854 174.424 176.134 174.424C158.001 174.424 142.453 168.211 130.364 156.135C119.99 145.772 112.236 128.734 117.051 126.884C119.275 126.028 120.183 127.135 124.463 135.919C134.409 156.331 156.098 167.719 179.394 164.76C198.452 162.339 215.471 150.172 223.985 132.881C229.924 120.819 226.786 118.06 211.27 121.7C195.555 125.388 182.182 126.474 160.654 125.808C125.616 124.725 109.188 119.154 109.188 108.356C109.188 104.496 115.162 98.7247 120.709 97.2287Z" fill="black"/>
<path d="M94 208.797H108.043C108.274 208.797 108.462 208.985 108.462 209.216V216.761M108.462 224.726V216.761M108.462 216.761H94" stroke="black" stroke-width="4.12278" stroke-linecap="round" stroke-linejoin="round"/>
<path d="M133.559 209.921H138.431M152.486 209.921H148.176M148.176 209.921V223.227C148.176 223.434 148.344 223.601 148.551 223.601H152.486H138.431M148.176 209.921H138.431M133.559 223.601H138.431M138.431 223.601V209.921" stroke="black" stroke-width="5.24717" stroke-linecap="round" stroke-linejoin="round"/>
<path d="M162.977 201.488V229.786" stroke="black" stroke-width="5.24717" stroke-linecap="round" stroke-linejoin="round"/>
<path d="M188.652 214.981V202.238C188.652 202.031 188.82 201.863 189.027 201.863H203.832C204.039 201.863 204.206 202.031 204.206 202.238V214.981C204.206 215.188 204.039 215.356 203.832 215.356H189.027C188.82 215.356 188.652 215.188 188.652 214.981Z" stroke="black" stroke-width="5.24717" stroke-linecap="round" stroke-linejoin="round"/>
<path d="M221.631 197.741V208.984M221.631 220.228V208.984M221.631 208.984H211.887" stroke="black" stroke-width="5.24717" stroke-linecap="round" stroke-linejoin="round"/>
<path d="M203.461 223.976V234.658C203.461 234.865 203.629 235.033 203.836 235.033H220.139" stroke="black" stroke-width="5.24717" stroke-linecap="round" stroke-linejoin="round"/>
<path d="M231.378 208.797H239.998M248.618 208.797H239.998M239.998 208.797L238.686 217.042M238.686 217.042L245.433 225.288M238.686 217.042L229.129 222.477" stroke="black" stroke-width="5.24717" stroke-linecap="round" stroke-linejoin="round"/>
<path d="M123.998 200.926V215.356M123.998 229.786V215.356M123.998 215.356H113.691" stroke="black" stroke-width="5.24717" stroke-linecap="round" stroke-linejoin="round"/>
<path d="M260.049 201.676V216.105M260.049 230.535V216.105M260.049 216.105H249.742" stroke="black" stroke-width="5.24717" stroke-linecap="round" stroke-linejoin="round"/>
</svg>
