<svg width="368" height="328" viewBox="0 0 368 328" fill="none" xmlns="http://www.w3.org/2000/svg">
<g clip-path="url(#clip0_684_723)">
<path d="M368 -1.52588e-05H0V328H368V-1.52588e-05Z" fill="url(#paint0_linear_684_723)"/>
<g filter="url(#filter0_d_684_723)">
<path fill-rule="evenodd" clip-rule="evenodd" d="M155.061 76.0919C153.507 78.4651 151.654 82.0499 150.055 85.7781C149.715 86.5687 149.329 87.4612 149.197 87.7605C147.952 90.5697 144.67 99.5493 143.75 102.663C143.102 104.857 142.176 108.747 141.774 110.964C141.713 111.301 141.564 112.097 141.443 112.733C141.092 114.579 140.434 118.625 140.148 120.694C140.003 121.742 139.815 123.079 139.73 123.664C139.645 124.25 139.569 125.199 139.56 125.774C139.546 126.747 139.564 126.821 139.837 126.86C140.028 126.888 141.005 126.324 142.672 125.224C145.022 123.675 146.351 122.805 152.711 118.653C153.973 117.83 156.407 116.238 158.122 115.114C159.836 113.992 162.096 112.513 163.144 111.827C164.283 111.083 165.135 110.612 165.262 110.656C165.379 110.696 165.89 111.134 166.397 111.629C167.788 112.985 173.573 119.266 173.62 119.47C173.725 119.924 173.232 119.724 171.196 118.487C169.992 117.755 168.849 117.064 168.659 116.951C168.094 116.618 166.188 115.417 165.693 115.084C165.441 114.913 165.1 114.775 164.934 114.775C164.452 114.775 161.237 117.061 147.783 126.975C133.801 137.277 132.149 138.473 132.045 138.365C131.827 138.139 131.607 127.738 131.698 121.987C131.861 111.781 132.588 103.984 134.089 96.3343C134.636 93.551 135.464 90.256 136.092 88.3727C136.579 86.9125 136.632 86.6022 136.397 86.6043C136.152 86.607 134.444 90.0934 133.498 92.5233C130.831 99.3648 128.932 107.124 127.603 116.611C125.952 128.396 125.186 139.519 125.552 146.409C125.72 149.569 125.842 150.226 126.266 150.226C126.538 150.226 127.962 149.099 137.518 141.322C144.601 135.558 146.341 134.139 149.876 131.245C157.467 125.032 164.487 119.498 164.977 119.341C165.356 119.22 166.604 119.739 170.033 121.443C173.012 122.924 173.477 123.309 172.127 123.176C171.354 123.1 167.814 122.608 166.623 122.412C166.138 122.333 165.786 122.339 165.61 122.431C165.238 122.624 162.953 124.612 154.941 131.715C153.753 132.768 151.504 134.76 149.944 136.142C148.384 137.523 147.041 138.716 146.96 138.792C146.879 138.868 145.303 140.278 143.457 141.924C135.642 148.9 129.516 154.451 125.465 158.232L123.457 160.106C123.166 160.378 123 160.758 123 161.157C123 162.471 123.934 169.76 124.763 174.926C128.11 195.762 134.217 213.329 141.98 224.456C143.21 226.22 145.775 229.588 145.989 229.721C146.307 229.919 146.199 229.571 145.627 228.556C142.491 222.986 138.581 213.071 136.634 205.751C135.688 202.194 135.434 201.145 134.801 198.198C134.43 196.466 134.351 196.041 133.946 193.571C133.792 192.635 133.609 191.533 133.538 191.121C133.223 189.27 132.547 182.906 132.322 179.669C132.15 177.184 132.148 167.038 132.319 165.707C132.389 165.164 132.538 164.543 132.65 164.325C132.942 163.755 136.449 159.8 144.069 151.448C145.369 150.023 147.46 147.726 148.716 146.343C149.972 144.961 151.311 143.493 151.692 143.081C152.071 142.67 153.201 141.414 154.202 140.291C155.202 139.168 156.054 138.219 156.094 138.182C156.254 138.033 161.44 132.088 163.881 129.254C165.501 127.372 166.625 126.182 166.881 126.075C167.484 125.823 173.264 126.186 173.449 126.486C173.547 126.647 173.446 126.692 170.987 127.576C169.746 128.022 168.606 128.47 168.453 128.571C168.301 128.672 166.388 131.596 164.203 135.068C162.018 138.54 160.033 141.686 159.794 142.06C159.283 142.858 150.099 157.645 148.383 160.433C147.738 161.481 146.048 164.201 144.627 166.478C143.113 168.904 142.043 170.755 142.043 170.948C142.043 171.357 142.92 179.326 143.2 181.458C144.388 190.513 145.494 196.119 147.914 205.342C148.741 208.493 151.042 216.302 151.925 218.952C155.378 229.312 159.476 238.475 165.726 249.81C166.294 250.839 166.758 251.743 166.758 251.817C166.758 251.892 166.819 251.953 166.893 251.953C166.967 251.953 167.028 251.914 167.028 251.866C167.028 251.819 166.607 250.671 166.092 249.315C164.243 244.445 160.779 234.137 160.003 231.2C159.944 230.975 159.736 230.271 159.54 229.635C159.345 228.999 159.069 228.049 158.929 227.525C158.694 226.649 158.253 225.049 157.58 222.626C157.36 221.83 156.525 218.547 156.301 217.59C156.265 217.441 156.055 216.553 155.832 215.618C154.394 209.578 153.02 202.543 152.375 197.925C151.772 193.604 151.102 185.718 150.745 178.737C150.432 172.6 150.391 172.924 151.828 169.959C152.481 168.612 153.303 166.897 153.656 166.148C154.4 164.568 158.646 155.699 162.776 147.096C168.066 136.079 170.009 132.133 170.309 131.803C170.823 131.238 173.399 129.592 173.702 129.636C173.88 129.662 174.096 129.901 174.289 130.288C174.667 131.047 175.807 133.56 175.807 133.635C175.807 133.666 174.846 135.146 173.671 136.923C170.64 141.509 170.632 141.524 170.563 142.987C170.441 145.56 171.291 152.032 172.711 159.336C174.769 169.92 176.76 176.94 179.66 183.838L179.676 183.875C179.76 184.075 180.038 184.085 180.136 183.892C180.45 183.275 181.221 182.59 182.012 182.224C182.944 181.792 184.412 181.834 185.418 182.321C186.119 182.661 186.855 183.336 187.237 183.987C187.321 184.131 187.433 184.208 187.485 184.158C187.816 183.841 189.824 178.303 190.931 174.654C191.485 172.83 192.962 167.181 193.226 165.876C193.302 165.502 193.454 164.798 193.565 164.312C193.762 163.447 194.988 157.225 195.254 155.738C195.384 155.015 195.668 153.283 195.936 151.587C196.447 148.343 196.802 144.356 196.714 142.831C196.638 141.512 196.557 141.358 193.616 136.922C192.438 135.144 191.473 133.665 191.473 133.635C191.473 133.606 191.709 133.07 191.997 132.446C192.286 131.82 192.656 130.992 192.82 130.605C193.343 129.373 193.408 129.358 194.759 130.185C197.062 131.595 196.886 131.348 199.682 137.085C201.052 139.896 202.493 142.87 202.885 143.693C203.277 144.517 204.159 146.354 204.845 147.776C205.531 149.198 206.503 151.22 207.003 152.267C207.504 153.315 208.75 155.918 209.772 158.051C210.795 160.184 212.01 162.726 212.474 163.699C212.936 164.672 214.064 167.03 214.978 168.938C216.296 171.691 216.653 172.559 216.702 173.133C216.872 175.116 216.079 187.543 215.368 194.047C214.517 201.831 212.358 212.772 209.836 222.081C209.553 223.129 209.199 224.446 209.051 225.007C208.689 226.378 207.478 230.639 207.235 231.404C207.127 231.741 206.815 232.751 206.54 233.649C205.095 238.386 202.354 246.343 200.704 250.593C200.312 251.602 200.153 252.285 200.386 251.953C200.465 251.841 201.052 250.8 201.691 249.64C206.255 241.341 209.51 234.499 212.504 226.913C214.154 222.729 216.601 215.509 217.231 212.964C217.269 212.814 217.419 212.293 217.564 211.807C217.802 211.015 218.824 207.379 219.363 205.411C219.774 203.905 220.355 201.632 220.701 200.171C220.896 199.347 221.143 198.307 221.25 197.858C221.803 195.535 222.184 193.576 223.145 188.127C223.501 186.104 224.245 180.445 224.708 176.219C224.791 175.47 224.943 174.156 225.048 173.299C225.376 170.596 225.618 171.243 222.248 165.803C219.644 161.599 218.562 159.858 216.415 156.418C215.582 155.083 209.544 145.359 208.852 144.238C205.984 139.592 199.219 128.939 198.987 128.704C198.826 128.542 197.798 128.096 196.673 127.7C195.559 127.308 194.48 126.928 194.275 126.855C194.072 126.783 193.904 126.646 193.904 126.551C193.904 126.319 194.435 126.247 197.575 126.054C199.974 125.906 200.265 125.912 200.568 126.111C200.752 126.232 201.864 127.452 203.039 128.821C207.793 134.355 212.598 139.776 218.215 145.939C221.725 149.792 228.117 156.821 230.033 158.936C232.768 161.952 234.477 164.001 234.722 164.556C234.945 165.062 234.995 165.657 235.094 168.948C235.198 172.415 235.102 178.019 234.892 180.737C234.755 182.502 234.424 185.957 234.293 186.97C234.226 187.494 234.1 188.505 234.012 189.216C233.314 194.863 231.504 203.308 229.899 208.404C229.302 210.298 228.048 214.091 227.943 214.325C227.875 214.474 227.663 215.046 227.472 215.596C226.324 218.902 223.24 225.777 221.609 228.67C220.265 231.051 221.987 229.313 224.355 225.896C229.283 218.79 233.374 210.271 236.527 200.551C239.259 192.125 241.728 181.139 243.136 171.137C243.56 168.124 244.101 163.522 244.222 161.888L244.241 161.631C244.289 160.991 244.052 160.363 243.594 159.914L243.422 159.746C242.434 158.78 237.051 153.803 234.826 151.8C234.046 151.098 232.375 149.591 231.112 148.452C228.148 145.778 224.863 142.828 223.675 141.773C223.16 141.314 221.611 139.936 220.233 138.71C213.567 132.778 209.361 129.052 206.118 126.208C204.712 124.975 203.531 123.933 203.493 123.894C203.238 123.628 201.89 122.548 201.67 122.432C201.495 122.34 201.139 122.332 200.657 122.408C198.567 122.742 195.142 123.213 194.816 123.212C194.6 123.212 194.444 123.137 194.444 123.033C194.444 122.839 200.78 119.655 201.685 119.394C202.164 119.255 202.292 119.268 202.63 119.481C203.745 120.186 211.091 126.07 223.009 135.801C230.791 142.154 236.516 146.8 238.905 148.696C240.958 150.325 241.316 150.483 241.505 149.839C241.69 149.209 241.853 143.53 241.776 140.428C241.731 138.631 241.576 135.477 241.431 133.419C241.07 128.297 241.027 127.835 240.368 122.055C240.165 120.275 239.711 116.829 239.479 115.309C239.36 114.529 239.212 113.553 239.148 113.142C239.086 112.729 238.973 112.086 238.9 111.713C238.825 111.338 238.693 110.634 238.605 110.147C237.482 103.901 235.785 97.6777 233.857 92.7276C233.003 90.5375 231.513 87.4099 231.067 86.8762L230.981 86.7724C230.913 86.6904 230.78 86.7375 230.779 86.8441C230.776 87.0129 230.834 87.2582 230.906 87.3881C231.2 87.919 232.576 92.9859 233.002 95.109C234.876 104.44 235.551 112.175 235.562 124.437C235.569 132.056 235.419 138.27 235.224 138.391C235.129 138.45 234.445 137.966 230.503 135.052C229.845 134.565 228.103 133.286 226.631 132.209C225.159 131.132 223.499 129.907 222.943 129.487C222.388 129.067 221.8 128.632 221.638 128.519C221.178 128.202 217.083 125.21 216.931 125.081C216.857 125.018 215.733 124.188 214.433 123.238C213.133 122.287 211.785 121.294 211.438 121.033C211.09 120.772 210.252 120.16 209.576 119.674C208.9 119.187 207.968 118.511 207.506 118.171C205.136 116.426 202.672 114.775 202.44 114.775C202.195 114.775 201.428 115.224 195.968 118.571C194.068 119.736 193.554 119.936 193.661 119.468C193.707 119.264 199.791 112.67 201.037 111.474C201.499 111.031 201.976 110.692 202.136 110.692C202.292 110.692 203.467 111.383 204.746 112.227C206.026 113.071 208.243 114.525 209.674 115.459C219.338 121.763 221.714 123.316 224.612 125.224C226.259 126.308 227.261 126.887 227.447 126.859C227.842 126.803 227.881 126.15 227.611 124.164C227.494 123.304 227.334 122.11 227.257 121.511C226.964 119.247 226.274 115.031 225.697 111.985C224.571 106.032 223.576 102.342 221.751 97.3552C221.601 96.9431 221.224 95.9024 220.915 95.0414C219.865 92.1236 217.981 87.4359 216.988 85.267C216.771 84.7941 216.594 84.3787 216.594 84.3438C216.594 84.3096 216.01 83.1042 215.297 81.6658C214.174 79.4019 212.315 76.0953 211.685 75.2404C211.171 74.5455 211.369 75.3662 212.248 77.5836C216.014 87.0833 218.528 96.8119 219.825 106.901C220.101 109.042 220.21 109.957 220.579 113.209C220.983 116.771 221.035 117.181 221.124 117.539C221.187 117.794 221.162 117.904 221.041 117.904C220.883 117.904 219.229 116.859 212.093 112.248C210.768 111.392 209.629 110.692 209.56 110.692C209.492 110.692 209.436 110.63 209.436 110.556C209.436 110.481 209.379 110.42 209.31 110.42C209.242 110.42 208.831 110.183 208.399 109.893C207.966 109.603 207.157 109.072 206.599 108.711C206.043 108.351 205.334 107.884 205.024 107.673C204.715 107.462 204.437 107.289 204.407 107.289C204.377 107.289 203.844 106.953 203.223 106.541C202.602 106.129 201.981 105.792 201.843 105.792C201.59 105.792 197.385 110.036 193.986 113.72C191.855 116.029 191.721 116.082 192.166 114.434C192.308 113.91 192.438 113.145 192.455 112.733C192.482 112.078 192.424 111.883 191.986 111.168C191.306 110.06 189.847 108.398 188.556 107.261C187.448 106.285 186.386 105.566 186.252 105.701C186.209 105.744 186.394 106.082 186.663 106.452C187.566 107.691 188.232 109.55 188.232 110.832C188.232 111.597 187.911 112.734 187.578 113.148C187.425 113.339 187.185 113.435 186.943 113.402L185.499 113.206C183.884 112.988 183.507 112.98 182.336 113.132C181.605 113.228 180.728 113.337 180.388 113.375C180.02 113.416 179.669 113.212 179.52 112.872L179.451 112.714C178.667 110.919 179.192 108.228 180.702 106.297C181.879 104.791 179.624 106.256 177.675 108.263C176.308 109.67 175.336 110.925 174.963 111.764C174.726 112.297 174.715 112.449 174.857 113.193C174.944 113.651 175.102 114.328 175.208 114.697C175.315 115.066 175.402 115.418 175.402 115.48C175.402 115.855 174.825 115.373 173.299 113.72C169.998 110.146 165.7 105.792 165.473 105.792C165.291 105.792 159.987 109.111 158.507 110.151C158.313 110.287 157.766 110.64 157.291 110.936C156.815 111.232 155.059 112.356 153.387 113.433C151.716 114.51 149.874 115.696 149.294 116.069C148.714 116.442 147.846 117.008 147.366 117.326C146.368 117.988 146.018 118.066 146.148 117.598C146.195 117.43 146.444 115.455 146.702 113.209C147.427 106.901 147.437 106.818 147.981 103.207C148.595 99.125 150.388 91.0712 151.223 88.6454C151.288 88.4582 151.446 87.9375 151.575 87.4885C152.379 84.6978 153.851 80.483 154.976 77.7578C155.896 75.5268 156.057 75.0354 155.868 75.0375C155.804 75.0382 155.441 75.5124 155.061 76.0919Z" fill="url(#paint1_linear_684_723)"/>
</g>
</g>
<defs>
<filter id="filter0_d_684_723" x="105.687" y="64.1792" width="155.873" height="211.664" filterUnits="userSpaceOnUse" color-interpolation-filters="sRGB">
<feFlood flood-opacity="0" result="BackgroundImageFix"/>
<feColorMatrix in="SourceAlpha" type="matrix" values="0 0 0 0 0 0 0 0 0 0 0 0 0 0 0 0 0 0 127 0" result="hardAlpha"/>
<feOffset dy="6.49247"/>
<feGaussianBlur stdDeviation="8.65663"/>
<feComposite in2="hardAlpha" operator="out"/>
<feColorMatrix type="matrix" values="0 0 0 0 0 0 0 0 0 0 0 0 0 0 0 0 0 0 0.7 0"/>
<feBlend mode="normal" in2="BackgroundImageFix" result="effect1_dropShadow_684_723"/>
<feBlend mode="normal" in="SourceGraphic" in2="effect1_dropShadow_684_723" result="shape"/>
</filter>
<linearGradient id="paint0_linear_684_723" x1="115" y1="339.49" x2="390.855" y2="138.374" gradientUnits="userSpaceOnUse">
<stop stop-color="#040C1B"/>
<stop offset="1" stop-color="#111929"/>
</linearGradient>
<linearGradient id="paint1_linear_684_723" x1="183.658" y1="83.1459" x2="142.311" y2="190.496" gradientUnits="userSpaceOnUse">
<stop stop-color="#F5EAEA"/>
<stop offset="1" stop-color="#F4E0E0"/>
</linearGradient>
<clipPath id="clip0_684_723">
<rect width="368" height="328" fill="white"/>
</clipPath>
</defs>
</svg>
